<svg id="GraphicMama.com" xmlns="http://www.w3.org/2000/svg" viewBox="0 0 1091.31 1997.26"><defs><style>.cls-1,.cls-14,.cls-2,.cls-3{fill:none;stroke-linecap:round;stroke-linejoin:round;}.cls-1,.cls-14{stroke:#f67a15;}.cls-1{stroke-width:55.79px;}.cls-2{stroke:#000;stroke-width:19.64px;}.cls-11,.cls-2,.cls-6{opacity:0.1;}.cls-3{stroke:#fff;stroke-width:15.71px;}.cls-10,.cls-12,.cls-3,.cls-8{opacity:0.2;}.cls-4{fill:#e6e7e8;}.cls-5{opacity:0.05;}.cls-10,.cls-11,.cls-15,.cls-7{fill:#fff;}.cls-7{opacity:0.3;}.cls-9{fill:#fdb800;}.cls-12{fill:#c76316;}.cls-13{fill:#a07714;}.cls-14{stroke-width:52.37px;}.cls-16{fill:#424143;}.cls-17{fill:#5e2514;}.cls-18{fill:#d63663;}</style></defs><title>banana-1773796</title><path class="cls-1" d="M877.31,1223.78c138.42-30.71,398.52,35.44,298.43,134.3" transform="translate(-196.07 -104.26)"/><path class="cls-2" d="M871.58,1239.8c138.41-30.71,387.84,23.17,287.75,122" transform="translate(-196.07 -104.26)"/><path class="cls-3" d="M879.05,1209.86c138.42-30.71,405.52,30.79,315.91,142.15" transform="translate(-196.07 -104.26)"/><path class="cls-4" d="M1193.6,1342.52l.92,2.12c7.78,18.37,11.56,41.56,1.07,59.67-4.45,7.71-11,13.84-19,16.64-.13.06-.26.09-.39.14a28.11,28.11,0,0,1-3.94,1c0,1.22,0,2.42-.13,3.59,0,.07,0,.12,0,.19-.12,1.68-.31,3.29-.54,4.76-2.18,13.57-10.54,24.28-20,33.76-20.73,20.86-42.56,44.06-69.9,56.17a64,64,0,0,1-13.39,5.75l-1.35.44-2.66.83c-1.7.53-3.35,1-4.91,1.55l-1.36.45c-13.26,4.54-26.75,9.25-40.62,11.53-12.43,2-25.4,1.06-36.29-5.69l-.42-.25c-.64-.41-1.27-.83-1.88-1.27-.24-.17-.49-.33-.72-.51-.45-.32-.87-.64-1.31-1l-.81-.65c-1.24-1-2.42-2-3.56-3.14-.27-.27-.55-.53-.81-.8-.09-.08-.17-.18-.26-.27-1.09-1.08-2.13-2.23-3.14-3.4L968,1524c-.34-.39-.67-.78-1-1.18-.64-.78-1.24-1.58-1.8-2.36-.27-.37-.51-.72-.75-1.1s-.36-.56-.53-.84-.16-.27-.25-.4-.32-.51-.46-.77c-.29-.46-.55-.91-.8-1.36-.16-.29-.31-.58-.47-.86a33,33,0,0,1-10.8,1.41h0c-.39,0-.76,0-1.12-.06-9.12-.74-17.57-5.43-24.13-11.64a48,48,0,0,1-10.23-13.9c-.28-.55-.54-1.11-.79-1.68l0-.07c-.23-.5-.44-1-.64-1.52l-.1-.25c-.16-.42-.32-.84-.46-1.26-.08-.19-.14-.38-.2-.57-.13-.36-.24-.73-.35-1.08s-.23-.73-.33-1.09-.2-.72-.29-1.09c-.22-.89-.4-1.78-.57-2.67a.78.78,0,0,0,0-.14,35.67,35.67,0,0,1-.34-10.66v-.07a33.55,33.55,0,0,1,1.35-6c.09-.27.19-.53.28-.79s.18-.53.29-.8a27.29,27.29,0,0,1-4.28-2.41c-.34-.23-.67-.48-1-.73s-.65-.49-1-.75-.64-.53-1-.8l-.54-.48a4.27,4.27,0,0,1-.38-.36.55.55,0,0,1-.14-.12c-5.31-5-9.4-11.61-12.78-18l-.43-.81a5.12,5.12,0,0,0-.22-.47,1.75,1.75,0,0,1-.11-.24l-.27-.56c-.1-.21-.18-.42-.27-.63-.17-.4-.34-.8-.5-1.21s-.31-.85-.46-1.28-.35-1.08-.49-1.62c0-.16-.09-.32-.13-.49a27.7,27.7,0,0,1-.63-3.06c-.07-.42-.12-.83-.16-1.25,0-.2,0-.39,0-.58-.05-.49-.08-1-.09-1.49s0-.79,0-1.18,0-1,0-1.49a34,34,0,0,1,4.83-15c3.08-7.53,8.66-14.31,14.39-19.67,6.51-6.1,13.63-10.57,21.84-12.92l0,0a35.84,35.84,0,0,1-5-4h0c-.55-.53-1.08-1.08-1.6-1.65s-1.17-1.33-1.72-2a31.22,31.22,0,0,1-5.17-9.74,23.66,23.66,0,0,1-.94-10.9c0-.26.1-.52.15-.77,1.6-7.72,7.7-11.86,15.2-13.49,18.73-4.07,35.49-12.28,48.35-26.83,10.53-11.92,19.5-27.92,37.08-27.8.81,0,1.64,0,2.48.13a56.58,56.58,0,0,1,14.41,3.59h.25a290.8,290.8,0,0,1,30.7,3.67c10.25,1.71,20.73,3.31,30.76,6.07a52.75,52.75,0,0,1,8.1,2.89,35.39,35.39,0,0,1,4.93,2.76,2.13,2.13,0,0,1,.84.3,48.62,48.62,0,0,1,12,11.22l.9,1.15.53.7a.86.86,0,0,1,.07-.1l.38-.48a28,28,0,0,1,3-3.25,27.27,27.27,0,0,1,2.55-2.09c.66-.49,1.35-.95,2.07-1.39a27.74,27.74,0,0,1,16.37-3.87,38,38,0,0,1,10.81,2.37C1175.19,1306.63,1186.21,1325.61,1193.6,1342.52Z" transform="translate(-196.07 -104.26)"/><path class="cls-5" d="M961.5,1373.35c-13,2.19-26.37,5.79-38,12.26-11.33,6.33-20.28,15.93-27.28,26.76a70.87,70.87,0,0,0-4.58,8.4c-1,2.1-1.91,4.25-2.76,6.4a27.7,27.7,0,0,0,.63,3.06c0,.17.09.33.13.49.14.54.31,1.08.49,1.62s.3.86.46,1.28.33.81.5,1.21c.09.21.17.42.27.63l.27.56a1.75,1.75,0,0,0,.11.24,5.12,5.12,0,0,1,.22.47l.43.81c3.38,6.39,7.47,13,12.78,18a.55.55,0,0,0,.14.12,4.27,4.27,0,0,0,.38.36l.54.48c.32.27.63.54,1,.8s.64.51,1,.75.66.5,1,.73a27.29,27.29,0,0,0,4.28,2.41c-.11.27-.19.54-.29.8s-.19.52-.28.79a33.55,33.55,0,0,0-1.35,6v.07a100.7,100.7,0,0,0,15.81-.73,108.79,108.79,0,0,0,17.57-4l.16-.09c2.26-1.1,4.5-2.25,6.72-3.42h0c4.65-2.46,9.24-5,13.88-7.48a166.55,166.55,0,0,0,25.68-16.39c.6-.48,1.21-1,1.8-1.48h0l1.73-1.52-.44-.32-.34-.27h0a.26.26,0,0,1-.09-.05c-.42-.32-.82-.64-1.23-1s-.74-.59-1.09-.9-.71-.6-1.06-.9l-.29-.25-.85-.77c-.44-.41-.89-.82-1.32-1.24l-.9-.89c-1.07-1.06-2.09-2.16-3.09-3.29-.51-.58-1-1.18-1.5-1.77-.16-.18-.29-.35-.44-.53-.39-.47-.77-1-1.13-1.44-.24-.31-.48-.61-.71-.93-1.08-1.42-2.09-2.89-3.06-4.39-.47-.73-.93-1.47-1.37-2.22a78,78,0,0,1-5.63-11.5,64.06,64.06,0,0,1-3.18-10.81,52.1,52.1,0,0,1-.83-5.83,47.69,47.69,0,0,1,.65-11.94Q964.26,1372.89,961.5,1373.35Zm73.66,113.9-1-.34c-.34-.12-.69-.24-1-.37-1-.39-2-.81-3-1.27l-.08,0a45.79,45.79,0,0,1-4.43-2.36l-.31-.2c-.39-.24-.77-.48-1.15-.74s-.94-.62-1.4-1c-.89-.64-1.77-1.32-2.61-2l0,0c-.82-.68-1.61-1.39-2.37-2.14l-.26-.25c-.34-.34-.67-.69-1-1s-.75-.81-1.11-1.23-.7-.83-1-1.26-.67-.86-1-1.3-.63-.88-.93-1.34-.74-1.16-1.08-1.75c-.49-.87-1-1.79-1.49-2.73-1.21-1.62-2.35-3.29-3.39-5a47.31,47.31,0,0,1-5.28-12.2c-.1-.37-.2-.74-.29-1.12q-1.87,1.64-3.83,3.21a125.6,125.6,0,0,1-33.64,18.78,120.29,120.29,0,0,1-36.75,8.14,65.36,65.36,0,0,1-15.13-.91,42,42,0,0,0,1,5.52c.09.37.19.73.29,1.09s.22.72.33,1.09.22.72.35,1.08c.06.19.12.38.2.57.14.42.3.84.46,1.26l.1.25c.2.51.41,1,.64,1.52l0,.07c.25.57.51,1.13.79,1.68a48,48,0,0,0,10.23,13.9c6.56,6.21,15,10.9,24.13,11.64.36,0,.73.06,1.12.06h0a33,33,0,0,0,10.8-1.41c.16.28.31.57.47.86.25.45.51.9.8,1.36.14.26.3.51.46.77s.17.27.25.4.35.56.53.84.48.73.75,1.1c.56.78,1.16,1.58,1.8,2.36.33.4.66.79,1,1.18.36,0,.68,0,.94,0h0a3.27,3.27,0,0,0,.35,0,134.05,134.05,0,0,0,15.78-2.82,173.12,173.12,0,0,0,29-9.69,163.05,163.05,0,0,0,22.09-11.57,1,1,0,0,0,.13-.09c1.39-.85,2.77-1.75,4.13-2.65-.85-1.46-1.63-2.94-2.34-4.47-.51-1.12-1.25-2.67-1.86-4.34l-.21-.61C1035.73,1487.55,1035.45,1487.41,1035.16,1487.25Zm23,31.14c-.64-.59-1.27-1.19-1.88-1.79-2.9-2.81-5.58-5.78-8-8.62-1.53-1.8-3-3.67-4.43-5.61a138.28,138.28,0,0,1-27.12,14.33,151.29,151.29,0,0,1-33.38,9.65,104.12,104.12,0,0,1-12.07,1.23h0l.27.26c.26.27.54.53.81.8,1.14,1.09,2.32,2.14,3.56,3.14l.81.65c.44.34.86.66,1.31,1,.23.18.48.34.72.51.61.44,1.24.86,1.88,1.27l.42.25c10.89,6.75,23.86,7.74,36.29,5.69,13.87-2.28,27.36-7,40.62-11.53l1.36-.45c1.56-.51,3.21-1,4.91-1.55l2.66-.83,1.35-.44A61,61,0,0,1,1058.21,1518.39Z" transform="translate(-196.07 -104.26)"/><path class="cls-6" d="M1193.6,1342.52l.92,2.12c7.78,18.37,11.56,41.56,1.07,59.67-4.45,7.71-11,13.84-19,16.64-.13.06-.26.09-.39.14a28.11,28.11,0,0,1-3.94,1c0,1.22,0,2.42-.13,3.59,0,.07,0,.12,0,.19a2.44,2.44,0,0,1,0-.27c-.84-14.53-6.43-27.36-11-41.44q-.94-2.93-1.91-5.79a252.48,252.48,0,0,0-14.93-36.05c-2.24-4.32-5.44-11.49-9.19-18.25s-8.11-13.2-12.65-15.91a28,28,0,0,1,3-3.25,27.27,27.27,0,0,1,2.55-2.09c.66-.49,1.35-.95,2.07-1.39a27.74,27.74,0,0,1,16.37-3.87,13.82,13.82,0,0,0-1.29,1.1,5.63,5.63,0,0,0-1.79,2.13,8.88,8.88,0,0,0-1.3,2.92c-1,4.2,1.76,7.26,4.29,10.17a109.21,109.21,0,0,1,12,16.86c3.68,6.29,6.58,13.18,10.72,19.2,2.83,4.14,7.06,8.2,12.46,8C1189.43,1357.55,1192.68,1349.91,1193.6,1342.52Z" transform="translate(-196.07 -104.26)"/><path class="cls-7" d="M1165.15,1307a17,17,0,0,0-12.81-.67c.18,9.44,9.08,19.37,13.67,27.14,2.78,4.72,8.33,16.62,15.27,14,8.28-3.12,3.61-17.09,1-22.29C1178.19,1316.84,1172.72,1313.26,1165.15,1307Z" transform="translate(-196.07 -104.26)"/><path class="cls-5" d="M977.37,1414.81a72.37,72.37,0,0,0,17.1,18.61c.64,2.11-27.56,22.33-43.86,27.61a160.25,160.25,0,0,1-33.64,7.2l-5.43.53a33.55,33.55,0,0,1,1.35-6c.18-.54.36-1.07.57-1.59a30.07,30.07,0,0,1-8.27-5.65c-5.31-5-9.4-11.61-12.78-18a30.28,30.28,0,0,1-3.77-16.36c8.65-.87,17-4.37,24.75-8.35,11.82-6,22.91-14,35.89-17.42,5.14-1.35,12.72-3.91,17.91-5.13l.15,0a109,109,0,0,0,3,10.84C972.15,1406.28,974.45,1411.23,977.37,1414.81Z" transform="translate(-196.07 -104.26)"/><path class="cls-6" d="M923.08,1367.84l-.55-.1c.7.61,1.42,1.2,2.15,1.75h0a35.84,35.84,0,0,0,5,4l1.15-.33c1.92-.55,3.83-1,5.77-1.52l.3-.08c2-.49,4-.94,6-1.37.46-.11.91-.2,1.37-.29,5.13-1.1,10.28-2.06,15.42-3,4-.73,7.94-1.36,11.83-1.75.24-.33.5-.65.76-1a1.37,1.37,0,0,1,.21-.28l.25-.33c0-.06.1-.14.16-.2.41-.55.83-1.08,1.26-1.61.21-.26.42-.53.64-.79q.93-1.17,1.92-2.31c.64-.78,1.3-1.55,2-2.3s1.59-1.79,2.4-2.68,1.5-1.65,2.27-2.46c1.53-1.64,3.07-3.25,4.64-4.86.77-.81,1.57-1.61,2.36-2.41,1.18-1.19,2.37-2.39,3.56-3.57s2.38-2.37,3.57-3.55c3.15-3.14,6.27-6.25,9.26-9.34.56-.58,1.11-1.15,1.68-1.71s1.12-1.1,1.68-1.64l1.64-1.51c.58-.53,1.16-1,1.73-1.55s1.4-1.21,2.11-1.78c0,0,.11-.08.16-.12,10.36-8.5,21.06-13.9,33.52-20.53-5.63-.61-15.94,4.28-21.78,6.34-24.88,8.77-40.55,29.7-62,43.76-10.75,7-21.63,13.61-34.84,12.84a25.38,25.38,0,0,1-14.39-5.6,31.22,31.22,0,0,0,5.17,9.74C921.91,1366.51,922.48,1367.19,923.08,1367.84Z" transform="translate(-196.07 -104.26)"/><path class="cls-5" d="M1153.11,1347.54c10.59,22.75,19.18,48.39,23.07,73.55a28.11,28.11,0,0,1-3.94,1c0,1.22,0,2.42-.13,3.59,0,.07,0,.12,0,.19-.12,1.68-.31,3.29-.54,4.76-2.18,13.57-10.54,24.28-20,33.76-20.73,20.86-42.56,44.06-69.9,56.17a64,64,0,0,1-13.39,5.75l-1.35.44-2.66.83c-1.7.53-3.35,1-4.91,1.55l-1.36.45c-13.26,4.54-26.75,9.25-40.62,11.53-12.43,2-25.4,1.06-36.29-5.69a150.9,150.9,0,0,0,28.67-4.08,316.89,316.89,0,0,0,41.72-12.91c1.59-.6,3.21-1.22,4.84-1.86,15.44-6.09,32.28-14.29,44-26.45a78.92,78.92,0,0,0,25.3-33.26c8.13-19.86,12.57-37.91,11.7-59.57a211.51,211.51,0,0,0-14.44-68.36c-4.45-11.11-10.83-26.18-20.15-36.32a35.39,35.39,0,0,1,4.93,2.76,2.13,2.13,0,0,1,.84.3,48.62,48.62,0,0,1,12,11.22l.9,1.15.53.7a.86.86,0,0,1,.07-.1l.38-.48a28,28,0,0,1,3-3.25C1137.49,1318,1147.08,1334.59,1153.11,1347.54Z" transform="translate(-196.07 -104.26)"/><path class="cls-5" d="M1036.47,1487.92A23.5,23.5,0,0,0,1041,1497a144.51,144.51,0,0,1-22.1,11.1,337.3,337.3,0,0,1-35.3,11.63c-5.09,1.39-10.23,2.93-15.39,4.42-.4-.45-.78-.92-1.17-1.39-.64-.78-1.24-1.58-1.8-2.36a47.62,47.62,0,0,1-3.26-5.33,33,33,0,0,1-10.8,1.41h0c-.39,0-.76,0-1.12-.06-9.12-.74-17.57-5.43-24.13-11.64a48,48,0,0,1-10.23-13.9,144.85,144.85,0,0,0,45.34-7.63,172.22,172.22,0,0,0,39.18-19.07l1.7-1.11,4.53-2.22,1-.46a44.31,44.31,0,0,0,2.44,5.47c.48.94,1,1.86,1.49,2.73,5,8.67,14,15.45,23.87,18.63.42.14.82.26,1.23.38A1.38,1.38,0,0,0,1036.47,1487.92Z" transform="translate(-196.07 -104.26)"/><path class="cls-8" d="M1015.7,1319.26l-2.27,1.9c-.57.51-1.15,1-1.73,1.55l-1.64,1.51c-.56.54-1.12,1.08-1.68,1.64s-1.12,1.13-1.68,1.71c-3,3.09-6.11,6.2-9.26,9.34q-1.79,1.75-3.57,3.55c-1.19,1.18-2.38,2.38-3.56,3.57l-2.36,2.41c-1.57,1.61-3.11,3.22-4.64,4.86-.77.81-1.52,1.64-2.27,2.46s-1.61,1.79-2.4,2.68-1.33,1.52-2,2.3-1.3,1.54-1.92,2.31c-.22.26-.43.53-.64.79-.43.53-.85,1.06-1.26,1.61-.06.06-.11.14-.16.2l-.25.33a1.37,1.37,0,0,0-.21.28c-.55.7-1.08,1.41-1.6,2.13a147.86,147.86,0,0,0-18.45,2.17c-2.64.43-5.3.87-8,1.39-.46.09-.91.18-1.37.29-2,.39-4,.85-6,1.37l-.3.08c-1.84.49-3.66,1-5.46,1.66l-.31-.14a31.56,31.56,0,0,1-6.14-3.71h0c-.73-.55-1.45-1.14-2.15-1.75l.55.1c10.91,2,21.7-.52,32-5.11,22.92-10.26,40.11-29.28,60.49-43.35C1015.58,1319.34,1015.65,1319.3,1015.7,1319.26Z" transform="translate(-196.07 -104.26)"/><path class="cls-8" d="M969.87,1442.43a174.22,174.22,0,0,1-18.66,5.34,234.54,234.54,0,0,1-23.37,5.27c-4.76.93-9.56,1.69-14.4,2.15-2.52.23-5.3.47-8.12.48a30.17,30.17,0,0,0,8.14,5.52c-.11.27-.2.54-.29.81q3,0,6-.15c1.31-.06,2.61-.17,3.91-.31,6.32-1.25,12.72-3.25,19-5.06,5.24-1.52,10.49-3.1,15.69-4.81,12.44-5.18,24.12-11.72,36-18.06.2-.21.39-.42.56-.63A219.27,219.27,0,0,1,969.87,1442.43Z" transform="translate(-196.07 -104.26)"/><path class="cls-8" d="M1035.56,1486.72a9,9,0,0,0-1.45-.93,126.44,126.44,0,0,1-27.66,15.7,116.39,116.39,0,0,1-17.11,6,153,153,0,0,1-38.18,9.07,33,33,0,0,0,10.8-1.41c.6,1.15,1.27,2.27,2,3.39,2.2-.35,4.52-.43,6.34-.71,4.54-.72,9-1.6,13.45-2.75a142.37,142.37,0,0,0,28.63-10.88c8.32-4.22,16.84-9.16,23.65-15.61l.71-.71a9.18,9.18,0,0,0-1.14-1.1Z" transform="translate(-196.07 -104.26)"/><path class="cls-7" d="M1016,1276.28c2.16,8.06-13.25,30.6-16.77,35.54-13.59,19.11-36.73,34.62-60.39,37.74-7.17,1-18,.5-23.47-5.16,1.6-7.72,7.7-11.86,15.2-13.49,18.73-4.07,35.49-12.28,48.35-26.83C989.48,1292.16,998.45,1276.16,1016,1276.28Z" transform="translate(-196.07 -104.26)"/><path class="cls-7" d="M1059.13,1489.91c2.68,2.86,5.92,5.77,8.77,6.12h.1c-.12-.55-.23-1.1-.35-1.65-5.5-26.09-6.41-52.42-1-78.22,2.87-16.27,8-32.08,15.83-45.59,2.91-6.15,6.08-12.17,9.53-18,4.38-7.4,9.23-14.5,13.92-21.71a179.89,179.89,0,0,1-14.15-29.12c-.55-1.5-1.13-3.2-1.68-5-5.6,1.23-11.18,2.58-16.69,4.16-14.21,4.07-27.82,9.73-40.14,18-12.1,8.1-22.43,18.42-32.19,29.15a328.21,328.21,0,0,0-22.8,27.7c.28,3.76.73,7.33,1.17,10.45a76.91,76.91,0,0,0,1.71,8.6,58.1,58.1,0,0,0,7.41,11.78c6.31,7.75,15.17,12.87,21.23,21,5.89,7.88,8.84,17.11,15.86,24.29,8.59,8.8,17.49,16.53,24.62,26.61A105.9,105.9,0,0,0,1059.13,1489.91Z" transform="translate(-196.07 -104.26)"/><path class="cls-8" d="M1121.42,1308.07l-1-.94c0-.07,0-.14.07-.21Z" transform="translate(-196.07 -104.26)"/><path class="cls-8" d="M1176.57,1421c-.13.06-.26.09-.39.14a28.11,28.11,0,0,1-3.94,1c0,1.22,0,2.42-.13,3.59l0-.08c-4.61-15.52-8.33-31.56-12.92-47.23-5.65-19.25-12.6-37.93-24.12-54.3a111.34,111.34,0,0,0-13-15.43l.38-.48a28,28,0,0,1,3-3.25,27.27,27.27,0,0,1,2.55-2.09C1141.37,1320.1,1178.82,1386.45,1176.57,1421Z" transform="translate(-196.07 -104.26)"/><path class="cls-9" d="M1284.46,1979.29c-.08-3-.21-5.89-.4-8.8a290.62,290.62,0,0,0-10.5-61.65c-2.2-7.83-4.74-15.57-7.52-23.24-20-40.21-41.21-79.84-64.75-118.14q-4.95-8.07-10-16.06c-48.58-69.31-104.75-133.66-151.13-204.31-12.08-15.84-24-31.83-35.4-48.14-66.81-95.2-116.23-200.51-132.21-316.5-8.18-59.29-9.55-118.5-5.71-178.19q1.38-21.42,3.36-42.77,1-11.41,2.21-22.82c.51-5,1.21-9.92,1.74-14.88-.1.83-.17,1.24,0-.81s.46-3.81.69-5.71q2.63-21.42,5.47-42.81,1.51-11.41,3.05-22.83,1-7.2,1.93-14.39c.26-1.89.51-3.77.76-5.66,0-.16.11-.78.19-1.4v.05a.22.22,0,0,1,0-.08c6.49-48.33,14.38-95.91,19.62-144.17,0-.66,0-1.33.07-2,2.54-92.47-12.5-166.24-39.9-248.67q-5.44-16.41-11.56-33.37-2.75-7.62-5.41-15.24c-.84-5.78-1.64-11.59-2.42-17.38-.73-5.54-1.45-11.1-2.15-16.64-4.22-.17-8.42-.43-12.64-.76q-5.88-.48-11.73-1.16c-23.12,2.56-46.28,3-68.4-2,.45,1.52.9,3.05,1.29,4.56-16.73,4.73-33.62,9.22-49.87,15.35q-10.64,4-21,8.63-9.66,6.6-19.31,13.2a731.76,731.76,0,0,0-96.76,79.19,621.53,621.53,0,0,0-42.66,46.07,598.71,598.71,0,0,0-36.59,47.85A718.44,718.44,0,0,0,423.19,677c-1.74,3.87-4.95,11.2-5.77,13.14.11-.26-1.72,4.17-2.18,5.31q-1.44,3.51-2.83,7-6.06,15.32-11.46,30.86-10.6,30.55-18.8,61.89c-.38,1.43-.72,2.86-1.08,4.28-6.28,38.42-10.42,77.28-13.39,116-12.63,163.94-5.47,330.58,36,489.68,11.06,42.41,26.25,87.31,45.17,133.09,25.55,51.31,54.71,100.77,86.33,148.58q14.09,21.3,29,42,7.69,10.68,15.59,21.2c2.52,3.35,5.06,6.67,7.6,10l0,0c.08.09.15.19.24.31,1.3,1.64,2.58,3.29,3.87,4.94q31.92,40.51,67,78.48A1013.29,1013.29,0,0,0,731.19,1915c12.75,11.27,25.65,22.37,38.93,33,1.93,1.55,3.87,3.1,5.82,4.63l2,1.59c2.67,2.09,5.4,4.12,8.12,6.15q9.41,7,19,13.8a762.35,762.35,0,0,0,85.74,52.21c15.05,7.87,30.27,15.35,45.84,22.12,1.42.62,8.22,3.43,1.77.78l4.49,1.85c3.74,1.53,7.51,3,11.28,4.47q11.32,4.35,22.81,8.25c31.51,10.67,63.12,20.33,95.66,27.43a537.44,537.44,0,0,0,70,10.19c2.72-.45,5.44-.92,8.16-1.43,14.59-2.75,27.78-7.43,41.44-13.07a194.5,194.5,0,0,0,21.89-10.25c6.65-3.79,11.68-9.84,17.63-14.63,7.6-6.1.51-17.29-7.73-17.12,11.06-7.4,22.62-15.07,34.88-20.41,3.79-1.65,10.68,12.09,23.27,1.13C1286.61,2021.94,1284.61,1984.26,1284.46,1979.29ZM886.24,830c.11-.8.16-1.19.18-1.29C886.4,828.88,886.32,829.44,886.24,830Z" transform="translate(-196.07 -104.26)"/><path class="cls-10" d="M1284.06,1970.49a290.62,290.62,0,0,0-10.5-61.65c-2.2-7.83-4.74-15.57-7.52-23.24-20-40.21-41.21-79.84-64.75-118.14q-4.95-8.07-10-16.06c-48.58-69.31-104.75-133.66-151.13-204.31-12.08-15.84-24-31.83-35.4-48.14-66.81-95.2-116.23-200.51-132.21-316.5-8.18-59.29-9.55-118.5-5.71-178.19q1.38-21.42,3.36-42.77,1-11.41,2.21-22.82c.51-5,1.21-9.92,1.74-14.88-.1.83-.17,1.24,0-.81s.46-3.81.69-5.71q2.63-21.42,5.47-42.81,1.51-11.41,3.05-22.83,1-7.2,1.93-14.39c.26-1.89.51-3.77.76-5.66,0-.16.11-.78.19-1.4v.05c.12-.94.18-1.37.2-1.48h0l-.2,1.43c6.49-48.33,14.39-95.93,19.63-144.2,0-.66,0-1.33.07-2,2.54-92.47-12.5-166.24-39.9-248.67q-5.44-16.41-11.56-33.37-2.75-7.62-5.41-15.24c-.84-5.78-1.64-11.59-2.42-17.38-.73-5.54-1.45-11.1-2.15-16.64-4.22-.17-8.42-.43-12.64-.76q-5.88-.48-11.73-1.16c-20.73,2.29-41.5,2.86-61.51-.64,5.61,21.62,11.76,43.05,16.73,64.84,5,22.07,9.73,44.23,12.8,66.67,31.37,229.69-50.73,461.25-17.32,690.8,16.87,115.85,64.78,224.41,124.76,324.09,58.49,97.21,127.14,206.1,201.88,291.48q7.8,8.91,15.52,17.93c40.89,47.9,79.7,98.11,112.82,151.75,13.3,21.53,25.87,44.09,36,67.56,4.11,2.42,10.5,9.13,20.42.49,4.38-3.8,2.38-41.48,2.23-46.45C1284.38,1976.34,1284.25,1973.4,1284.06,1970.49Z" transform="translate(-196.07 -104.26)"/><path class="cls-10" d="M1198.06,1890.78c-27.66-38.94-60.21-75.81-88.27-113.84-164.23-222.6-317.33-448.42-318.36-735.85C790.81,876,812,712,802.55,546.76c-3.73-64.93-10.8-129.63-18.5-194.21a171.21,171.21,0,0,1-25.45-2.42c5.61,21.62,11.76,43.05,16.73,64.84,5,22.07,9.73,44.23,12.8,66.67,31.37,229.69-50.73,461.25-17.32,690.8,16.87,115.85,64.78,224.41,124.76,324.09,58.49,97.21,127.14,206.1,201.88,291.48q7.8,8.91,15.52,17.93c40.89,47.9,79.7,98.11,112.82,151.75,13.3,21.53,25.87,44.09,36,67.56,3.19,1.88,7.75,6.3,14.27,4.18-2.35.77-50.75-96.33-55.16-103.75C1213.88,1913.81,1206.18,1902.21,1198.06,1890.78Z" transform="translate(-196.07 -104.26)"/><path class="cls-11" d="M854.46,402q-2.75-7.62-5.41-15.24c-.84-5.78-1.64-11.59-2.42-17.38-.73-5.54-1.45-11.1-2.15-16.64-4.22-.17-8.42-.43-12.64-.76q-5.88-.48-11.73-1.16c-20.73,2.29-41.5,2.86-61.51-.64,5.61,21.62,11.76,43.05,16.73,64.84,5,22.07,9.73,44.23,12.8,66.67,11.53,84.4,7.73,169.05,0,253.76a92.61,92.61,0,0,1,23.26-17.82C833.54,706,858,706,880.23,717.41a91.75,91.75,0,0,1,23.36,17.89c1-17.09,1.86-34.19,2.33-51.31,2.54-92.47-12.5-166.24-39.9-248.67Q860.58,418.91,854.46,402Zm430,1577.34c-.08-3-.21-5.89-.4-8.8a290.62,290.62,0,0,0-10.5-61.65c-7.64-27.24-19-53.41-33-79.12-23.71-43.35-52.16-83.61-81.9-123-17.72,24-47.37,38.5-77.52,36.47a141.2,141.2,0,0,1-23.68-3.72c13.13,16.82,26.47,33.08,40,48.56q7.8,8.91,15.52,17.93c40.89,47.9,79.7,98.11,112.82,151.75,13.3,21.53,25.87,44.09,36,67.56,4.11,2.42,10.5,9.13,20.42.49C1286.61,2021.94,1284.61,1984.26,1284.46,1979.29Z" transform="translate(-196.07 -104.26)"/><path class="cls-10" d="M891,1874.43C722.88,1706,602,1486.64,550.88,1255.93c-54.93-248-26.69-515.94,91.1-741-42.58,56.55-66.7,120.59-90.7,186.43-180.67,495.77,83,1074,529.52,1327.88q3.85,2.21,7.73,4.37-27.88-17.59-54.54-36.92A1181,1181,0,0,1,891,1874.43Z" transform="translate(-196.07 -104.26)"/><path class="cls-12" d="M1204.91,2081.48c-3,1.43-6.11,2.79-9.2,4.11l-3.42,1.43c-13.66,5.64-26.85,10.32-41.44,13.07-2.76.51-5.51,1-8.27,1.42-13.29-1.12-26.47-2.61-39.64-4.6-10.11-1.53-20.18-3.38-30.28-5.58-32.54-7.1-64.16-16.76-95.66-27.43q-11.49-3.89-22.8-8.24c-3.79-1.47-7.54-2.95-11.29-4.48-.65-.27-1.29-.52-1.92-.79l-.18-.08-.22-.1c-1-.44-3.2-1.33-3.93-1.65-15.59-6.78-30.81-14.27-45.85-22.13a760.35,760.35,0,0,1-85.73-52.2q-9.63-6.76-19-13.81c-2.7-2-5.44-4.06-8.12-6.16l-2-1.57c-2-1.55-3.9-3.09-5.82-4.64-13.28-10.65-26.17-21.76-38.93-33a1015.56,1015.56,0,0,1-72.64-71.12q-35-37.85-67-78.49c-1.29-1.63-2.57-3.29-3.87-4.93l-.24-.32h0q-3.81-5-7.59-10-7.9-10.53-15.6-21.21-14.91-20.73-29-42c-31.62-47.8-60.77-97.25-86.32-148.56-18.93-45.79-34.12-90.7-45.18-133.11-41.51-159.1-48.67-325.74-36-489.68,3-38.75,7.11-77.61,13.38-116,.37-1.42.72-2.85,1.09-4.28q8.24-31.29,18.8-61.9,5.4-15.54,11.46-30.85c.92-2.34,1.86-4.7,2.83-7,.45-1.1,2.19-5.3,2.19-5.33.82-2,4-9.27,5.76-13.12a719.53,719.53,0,0,1,63.63-113.4,598.81,598.81,0,0,1,36.6-47.85,619.66,619.66,0,0,1,42.67-46.08,711.72,711.72,0,0,1,57-49.95q19.39-15.31,39.7-29.23,9.64-6.61,19.31-13.18,7.77-3.46,15.68-6.6,2.65-1,5.31-2.05c16.25-6.13,33.14-10.62,49.87-15.35-.39-1.51-.84-3-1.29-4.56,1.53.35,3.06.66,4.61,1q5.38,1,10.85,1.66c-21.63,10.06-1.86,21.15,7.93,34.91q-6.63,4.24-13.13,8.85c-36.73,26-69.24,58.73-96.78,94.22q-16.46,21.19-31.44,43.54a781.75,781.75,0,0,0-95.84,197.68c-148.68,465.48,88.67,1041.1,510.14,1281.73q5.45,3.14,10.94,6.16C1134.86,2060.45,1189.5,2078.47,1204.91,2081.48Z" transform="translate(-196.07 -104.26)"/><path class="cls-12" d="M513,1222.7c-30.67-165.65-25.1-335.61,24.89-492.11A785,785,0,0,1,665.19,489.37c27.54-35.48,60-68.23,96.77-94.22q6.49-4.61,13.14-8.86c-6.37-9-17-16.77-17.63-23.92-48.45,35.8-89.33,82.05-123.24,129.51a921.58,921.58,0,0,0-62.34,101.19c-159.3,298-153.08,660.79.14,960.28,117.41,229.5,317.9,408.4,552.23,513.14,9.28,4.15,18.55,8.32,27.87,12.37l1.14.5,1.09.44c2.37,1,4.74,2,7.11,2.93q7.14,2.91,14.3,5.71c2.19.85,4.4,1.67,6.59,2.51,3.3-1.24,6.59-2.56,9.92-3.93,4.24-1.76,8.47-3.58,12.64-5.54-15.42-3-70.06-21-145.93-63C777.05,1862.56,573.82,1551.11,513,1222.7Z" transform="translate(-196.07 -104.26)"/><path class="cls-12" d="M1282.23,2025.74c-12.59,11-19.48-2.78-23.27-1.13-12.26,5.34-23.82,13-34.88,20.41,8.24-.17,15.33,11,7.73,17.12-6,4.79-11,10.84-17.63,14.63a173.65,173.65,0,0,1-18.47,8.82l-3.42,1.43c-13.66,5.64-26.85,10.32-41.44,13.07-2.76.51-5.51,1-8.27,1.42-13.29-1.12-26.47-2.61-39.64-4.6-31.14-30.86-58.77-67.58-91.51-98.72,10.54,6.28,23.09,11,36.62,14.13,64.3,14.76,151.11-7.67,153.71-79.5,28.76,41.88,55.64,5.71,71.8-24a290.62,290.62,0,0,1,10.5,61.65c.19,2.91.32,5.85.4,8.8C1284.61,1984.26,1286.61,2021.94,1282.23,2025.74Z" transform="translate(-196.07 -104.26)"/><path class="cls-12" d="M866,435.32c-31.95-.47-74.86,19.07-76.4,54.43-39.12-61-113.62,1.76-155.87,43.16-6.87,6.73-12.88,12.89-17.75,17.86,2.59-28.79,35.13-106.2,7.13-131q19.39-15.31,39.7-29.23,9.64-6.61,19.31-13.18,7.77-3.46,15.68-6.6,2.65-1,5.31-2.05c16.25-6.13,33.14-10.62,49.87-15.35-.39-1.51-.84-3-1.29-4.56,1.53.35,3.06.66,4.61,1q5.38,1,10.85,1.66c17.34,2.05,35.15,1.35,52.94-.62q5.85.69,11.73,1.16a122.66,122.66,0,0,1,14.79,17.4c.78,5.79,1.58,11.6,2.42,17.38q2.67,7.62,5.41,15.24Q860.55,418.93,866,435.32Z" transform="translate(-196.07 -104.26)"/><path class="cls-13" d="M857.68,387.4c-1.48,2.24-5,3.82-8,4.68-.19.08-.37.17-.56.27-.46.25-.91.52-1.35.79A62.27,62.27,0,0,0,831.09,392c-15.73,1.08-34.18,10.93-43,25.18-.2-.52-.38-1-.59-1.54-6.7-15.87-19.55-28.61-36.6-32.88a48.84,48.84,0,0,0-6.2-1.11c0-.07-.05-.13-.08-.19-3.33-8.46-8.63-16-16.67-20.3l-.8-.41.38-.12a3.74,3.74,0,0,1-.57-.82c1.34-3.6,3-7.2,4.16-10.86,3.12,0,6.49.95,9.5.94,1.15,0,3.49-.1,5.78-.11h0a31.31,31.31,0,0,1,5.66.22s0-.08,0-.11c-.22-.85-.46-1.72-.71-2.66-8.38-30.36-29-97.83-56.57-129.81-.47-.54-.95-1.09-1.43-1.61-.67-.75-1.35-1.48-2-2.18l-.86-.86c-.49-.49-1-1-1.46-1.42,0,0,0-.16.13-.49,0-.16.09-.35.16-.59s.09-.32.14-.51.09-.37.16-.56,0-.16.06-.24c.08-.28.18-.6.29-1s.17-.62.29-1,.17-.55.27-.86c.51-1.62,1.16-3.61,2-5.89.12-.35.23-.7.38-1.05.78-2.15,1.69-4.55,2.75-7.13.3-.76.64-1.54,1-2.34.42-1,.86-2,1.34-3.1.21-.48.41-1,.64-1.44,1.51-3.39,3.24-7,5.2-10.77.56-1.09,1.13-2.19,1.74-3.3,2.39-4.43,5.08-9.06,8.1-13.79.75-1.19,1.53-2.39,2.33-3.58.39-.6.79-1.19,1.21-1.8.81-1.19,1.65-2.4,2.51-3.61,1.72-2.42,3.52-4.86,5.43-7.29.48-.61,1-1.21,1.43-1.82,2-2.43,4-4.87,6.12-7.29.52-.6,1.06-1.21,1.6-1.81A185.6,185.6,0,0,1,760.52,106c.78-.59,1.57-1.18,2.39-1.77,0,0,59.81,12.74,68.42,6.51q8.28,8.94,17.11,17.39c2.36,19.34,3.3,45.16,3.11,73.64-.24,40.09-2.72,85.46-6.59,125.39q-.69,7.11-1.44,14c.48,1.8.83,3.61,1.15,5.43-.24,9,3,18.45,6.29,26.63A95.33,95.33,0,0,0,857.68,387.4Z" transform="translate(-196.07 -104.26)"/><path class="cls-8" d="M844.22,382.59a64.86,64.86,0,0,0-20.94,2.11c-9.38,2.31-35.2,13.12-35.2,13.12s-9.17-9.25-14.08-13.62c-4.69-4.17-21.68-10.15-21.68-10.15S738.68,357.5,732.26,349c-.37,0-.75-.07-1.11-.07-1.17,3.66-2.82,7.26-4.16,10.86a3.74,3.74,0,0,0,.57.82l-.38.12.8.41c8,4.33,13.34,11.84,16.67,20.3,0,.06,0,.12.08.19a48.84,48.84,0,0,1,6.2,1.11c17.05,4.27,29.9,17,36.6,32.88.21.51.39,1,.59,1.54,8.79-14.25,27.24-24.1,43-25.18a62.27,62.27,0,0,1,16.69,1.17c.44-.27.89-.54,1.35-.79.19-.1.37-.19.56-.27,3-.86,6.51-2.44,8-4.68C857.11,386.47,848.22,382.92,844.22,382.59Z" transform="translate(-196.07 -104.26)"/><path class="cls-10" d="M848.44,128.16c-4.57-4.38-9-8.89-13.35-13.46l.48,4c1.9,15.34,4,30.69,5.6,46.08,6.07,37.56,6.31,76.38,4.22,114.77.37,10.71.56,21.43.46,32.13,0,2.43-.08,4.86-.12,7.29,3.42-37.85,5.6-79.79,5.82-117.14C851.74,173.32,850.8,147.5,848.44,128.16Z" transform="translate(-196.07 -104.26)"/><path class="cls-10" d="M784.73,188.15c11.31,30,21.22,60.47,28.68,91.5-.47-4-1-8.09-1.54-12.13C807.59,237,799,207,788.34,178.14c-9-24.3-19-48.28-26.55-73-.43.31-.86.62-1.27.94-2.78,2.09-5.46,4.24-8,6.42.13.33.25.65.38,1C764.64,137.83,775.26,163.05,784.73,188.15Z" transform="translate(-196.07 -104.26)"/><path class="cls-8" d="M815,283c4-28.64,7.8-57.31,10.59-86.06,2.49-25.56,5.09-51.08,6.86-76.7.18-2.57.35-5.15.53-7.72-.56-.6-1.14-1.18-1.69-1.77-8,5.78-60-4.74-67.49-6.31,3.38,7.38,6.52,14.9,9.51,22.53,11.3,28.85,19.92,59.38,27.7,89.35C806.74,238.26,811.48,260.55,815,283Z" transform="translate(-196.07 -104.26)"/><path class="cls-8" d="M831.33,110.77c-2.8,2-11,2-20.76,1.15,4.39,31.65,5.57,64,5.86,95.5.19,21.66.4,43.32.07,65,3.47-25.11,6.68-50.24,9.13-75.43,2.49-25.56,5.09-51.08,6.86-76.7.18-2.57.35-5.15.53-7.72C832.46,111.94,831.88,111.36,831.33,110.77Z" transform="translate(-196.07 -104.26)"/><path class="cls-8" d="M784.42,356.81h0c-1.21,1.1-2.44,2.19-3.68,3.24-.6.52-1.21,1-1.83,1.54a.7.7,0,0,0-.17.14c-.59.48-1.18.94-1.79,1.42-1.45,1.15-2.91,2.26-4.41,3.33-.47.35-.95.68-1.43,1-.65.46-1.3.92-2,1.37-7.76,5.2-16.11,8.82-24.5,12.56-3.33-8.46-8.63-16-16.67-20.3l-.8-.41.38-.12a3.74,3.74,0,0,1-.57-.82c1.34-3.6,3-7.2,4.16-10.86,3.12,0,6.49.95,9.5.94,1.15,0,3.49-.1,5.78-.11h0a11,11,0,0,0,5.66.22s0-.08,0-.11c-.22-.85-.46-1.72-.71-2.66-7.64-28.26-28-96.94-56.57-129.81-.46-.56-.94-1.09-1.43-1.61-.67-.75-1.35-1.48-2-2.18-.28-.3-.57-.59-.86-.86-.49-.49-1-1-1.46-1.42,0,0,0-.16.13-.49,0-.16.09-.35.16-.59s.09-.32.14-.51.09-.37.16-.56,0-.16.06-.24c.1-.3.18-.6.29-1s.17-.62.29-1,.17-.55.27-.86c.51-1.62,1.16-3.61,2-5.89.12-.35.23-.7.38-1.05.78-2.15,1.69-4.55,2.75-7.13.3-.76.64-1.54,1-2.34.42-1,.86-2,1.34-3.1.21-.48.41-1,.64-1.44,1.51-3.39,3.24-7,5.2-10.77.56-1.09,1.15-2.19,1.74-3.3,2.39-4.43,5.08-9.06,8.1-13.79.75-1.19,1.53-2.39,2.33-3.58.39-.6.79-1.19,1.21-1.8.81-1.19,1.65-2.4,2.51-3.61,1.72-2.42,3.52-4.86,5.43-7.29.48-.61,1-1.21,1.43-1.82,2-2.43,4-4.87,6.12-7.29.52-.6,1.06-1.21,1.6-1.81,25.51,70.76,47.92,146.71,55.28,221.78C787.86,353.61,786.15,355.23,784.42,356.81Z" transform="translate(-196.07 -104.26)"/><path class="cls-8" d="M784.43,356.81c-1.21,1.1-2.44,2.19-3.68,3.24-.6.52-1.21,1-1.83,1.54a.7.7,0,0,0-.17.14c-.59.48-1.18.94-1.79,1.42-1.45,1.15-2.91,2.26-4.41,3.33-.47.35-.95.68-1.43,1-.65.46-1.3.92-2,1.37-7.76,5.2-16.11,8.82-24.5,12.56-3.33-8.46-8.63-16-16.67-20.3l-.8-.41.38-.12a3.74,3.74,0,0,1-.57-.82c1.34-3.6,3-7.2,4.16-10.86,3.12,0,6.49.95,9.5.94,1.15,0,3.49-.1,5.78-.11h0a31.31,31.31,0,0,1,5.66.22s0-.08,0-.11c8.9,9.3,14.54,6.7,19,6.83S780,356.88,784.43,356.81Z" transform="translate(-196.07 -104.26)"/><path class="cls-8" d="M739.19,360.58a90.44,90.44,0,0,0-8.62-10c-1.1,3.09-2.45,6.15-3.58,9.2a3.74,3.74,0,0,0,.57.82l-.38.12.8.41c8,4.33,13.34,11.84,16.67,20.3,2.33-1,4.67-2.08,7-3.14C747.16,372.64,743.59,366.51,739.19,360.58Z" transform="translate(-196.07 -104.26)"/><path class="cls-8" d="M759.3,206h0c-.24-.81-.5-1.61-.74-2.42q-2.21-7.35-4.49-14.67c-.32-1-.63-2-1-3q-2.73-8.64-5.58-17.21l-1.17-3.49q-2.32-6.94-4.69-13.82l-1.58-4.56q-2.91-8.35-5.88-16.62-1.49,1.65-2.91,3.31c-.52.6-1,1.21-1.54,1.81l-1.13,1.36c-.68.82-1.34,1.64-2,2.46l-.45.57c-.76.95-1.5,1.9-2.23,2.85h0c-26.64,34.79-35,68.8-35,68.8.7.65,1.39,1.35,2.08,2.05A55.56,55.56,0,0,1,720,200.66c10-1.35,17-.16,26.78,2.47,2.69,8.23,41.39,144.14,41.82,149.7.3-.3.63-.59.93-.9C784.72,303.08,773.54,253.88,759.3,206Z" transform="translate(-196.07 -104.26)"/><path class="cls-13" d="M1287,2056.57q.22-5.3.43-10.57c-5.57-11-10.67-22.15-15.17-33.44-4.46,1.06-8.94,2-13.39,2.89a307.36,307.36,0,0,1-53.08,5.86c-7,.14-13.92.27-20.81-.09a273.2,273.2,0,0,1-21.45,26.47c6,14.9,11.92,29.81,18.22,44.6.9,2.11,1.78,4.21,2.65,6.32,2.1.17,3.21.23,3.21.23S1261.31,2083.57,1287,2056.57Z" transform="translate(-196.07 -104.26)"/><path class="cls-10" d="M1225.16,2053.91c-12.65-3.21-23.68-11.2-32.58-20.58-.9-.94-1.87-2-2.87-3.17,7.32,14.48,14.61,29,21.67,43.58l4.95-1.34c16.84-5.61,33.66-11.55,50.14-18.24,6.75-3.18,13.44-6.49,20.19-9.63l-1-2.08C1268,2054.16,1245.42,2059.06,1225.16,2053.91Z" transform="translate(-196.07 -104.26)"/><path class="cls-8" d="M1233.6,2066.4c-5.33,2.28-22.46,7.64-22.46,7.64s-24.74-49.94-26.2-52.82c-6,8.15-14.73,19.13-21.45,26.47,6,14.9,11.92,29.81,18.22,44.6.9,2.11,1.78,4.21,2.65,6.32,2.1.17,3.21.23,3.21.23s73.74-15.27,99.39-42.27q.22-5.3.43-10.57c-.27-.53-.52-1.07-.79-1.59C1269.33,2052.54,1251,2059,1233.6,2066.4Z" transform="translate(-196.07 -104.26)"/><path class="cls-8" d="M1286.6,2044.41c-17.27,8.13-35.59,14.57-53,22-4.16,1.78-15.5,5.43-20.29,6.95l-2.17.69,0-.06h0c-.3-.53-24.71-49.88-26.17-52.76l-3,4.09q4.89,14.18,9.46,28.42c3.26,10.14,6.67,20.14,9.5,30.29l-2,2q-5.41,6.51-11.08,12.8c1.17-.25,7.21-1.55,15.87-3.84h0l.1,0c23.21-6.13,65.15-19.33,83.22-38.36q.22-5.3.43-10.57C1287.12,2045.47,1286.87,2044.93,1286.6,2044.41Z" transform="translate(-196.07 -104.26)"/><path class="cls-8" d="M1286.6,2044.41c-17.27,8.13-35.59,14.57-53,22-4,1.73-14.84,5.22-19.84,6.81-2,1.71-3.88,3.45-5.8,5.21q-7.7,8.19-15.88,15.93c-1.24,1.45-2.47,2.9-3.73,4.33,2-.43,7.59-1.68,15.29-3.72l.1,0c23.21-6.13,65.15-19.33,83.22-38.36q.22-5.3.43-10.57C1287.12,2045.47,1286.87,2044.93,1286.6,2044.41Z" transform="translate(-196.07 -104.26)"/><path class="cls-14" d="M420.12,1241.93c-49.91,5.81-126.56,45.89-152.23,71-123.51,120.82,30.43,203.62,145.52,237.35" transform="translate(-196.07 -104.26)"/><path class="cls-2" d="M416.73,1230.73c-49.91,5.81-139.64,57.54-165.31,82.65C127.91,1434.2,287.86,1523,403,1556.75" transform="translate(-196.07 -104.26)"/><path class="cls-3" d="M428.87,1252.78C379,1258.58,302.65,1297,277,1322.06c-123.51,120.82,49,186.38,164.07,220.11" transform="translate(-196.07 -104.26)"/><path class="cls-4" d="M347.35,1544.22c-.05.85-.09,1.7-.12,2.54-1,22,4.1,47.38,21.92,62,7.59,6.24,16.68,10.06,26.07,9.84.16,0,.3,0,.46,0a30.78,30.78,0,0,0,4.46-.45q.72,1.89,1.53,3.66c0,.06.06.12.08.18.77,1.69,1.59,3.28,2.4,4.71,7.48,13.17,20.25,21,33.67,27.15,29.46,13.53,61,29.06,93.86,31a70.73,70.73,0,0,0,16.05.78l1.56-.08c1,0,2.06-.11,3.07-.16,2-.11,3.86-.23,5.67-.3l1.58-.06c15.44-.43,31.19-.78,46.4-3.78,13.62-2.69,26.63-8.71,35.27-19.89.11-.14.23-.28.33-.42.51-.67,1-1.35,1.46-2,.18-.27.37-.53.54-.8.34-.51.66-1,1-1.52.2-.32.39-.65.59-1,.88-1.51,1.7-3.06,2.46-4.62.17-.38.36-.76.52-1.14.06-.12.12-.25.17-.38.7-1.54,1.34-3.12,1.93-4.72,0-.1.06-.19.1-.29.19-.53.38-1.06.56-1.6.36-1,.67-2.11,1-3.14.13-.48.25-.94.34-1.41s.17-.72.22-1.08c0-.17.07-.34.11-.51.07-.33.13-.64.18-1,.12-.57.22-1.15.3-1.71.06-.35.1-.71.15-1.07a36.66,36.66,0,0,0,11.7-2.7h0c.4-.16.77-.34,1.13-.5,9.14-4.29,16.05-12.4,20.43-21.34a53.34,53.34,0,0,0,5.2-18.3c.07-.68.12-1.36.16-2a.21.21,0,0,0,0-.08c0-.61.07-1.22.07-1.82a2.91,2.91,0,0,0,0-.3c0-.49,0-1,0-1.48,0-.23,0-.44,0-.67,0-.42,0-.84-.06-1.25s0-.84-.08-1.25-.07-.82-.12-1.23c-.11-1-.27-2-.44-3l0-.15a39.47,39.47,0,0,0-3.77-11.15l0-.06a36,36,0,0,0-3.7-5.66c-.2-.25-.39-.47-.59-.7s-.4-.49-.61-.72a29.81,29.81,0,0,0,3.48-4.14c.26-.37.52-.75.76-1.14s.48-.76.71-1.15.46-.8.68-1.2l.37-.7a3.6,3.6,0,0,0,.26-.52.64.64,0,0,0,.1-.18c3.56-7.16,5.22-15.61,6.25-23.52,0-.33.08-.68.12-1s0-.38.05-.57a2.85,2.85,0,0,0,0-.29c0-.23,0-.47,0-.69s0-.5,0-.75c0-.48,0-1,0-1.45s0-1,0-1.49-.06-1.25-.13-1.86a5.54,5.54,0,0,0,0-.56,29,29,0,0,0-.53-3.4c-.09-.46-.19-.91-.32-1.35a5.61,5.61,0,0,0-.16-.62c-.14-.53-.31-1.06-.49-1.57s-.29-.83-.44-1.23-.41-1-.63-1.52A37.68,37.68,0,0,0,681.84,1494c-6.09-6.59-14.48-11.43-22.46-14.76-9.08-3.78-18.16-5.65-27.55-4.91l0,0a38.38,38.38,0,0,0,3.6-6.09h0c.36-.76.7-1.54,1-2.32s.71-1.84,1-2.77a34.06,34.06,0,0,0,1.57-12.05,25.86,25.86,0,0,0-3.24-11.62c-.14-.26-.3-.5-.44-.74-4.64-7.35-12.54-9.27-20.9-8.06-20.92,3-41.39,1-60.29-9-15.48-8.24-30.92-21.3-49-14.39-.83.32-1.67.69-2.51,1.09a62.42,62.42,0,0,0-13.49,9.28l-.26.1a322,322,0,0,0-30.28,15.64c-9.92,5.72-20.13,11.43-29.42,18.15a58,58,0,0,0-7.25,6.12,38.42,38.42,0,0,0-4,4.75,2.25,2.25,0,0,0-.75.64,53.14,53.14,0,0,0-8.08,16.22c-.17.51-.33,1-.48,1.54l-.29.92-.11-.08-.57-.34a30.87,30.87,0,0,0-4.38-2.19,30.29,30.29,0,0,0-3.44-1.18q-1.31-.37-2.67-.63a30.51,30.51,0,0,0-18.4,2.32,42.16,42.16,0,0,0-10.25,6.62C352.5,1500.05,348.46,1523.9,347.35,1544.22Z" transform="translate(-196.07 -104.26)"/><path class="cls-5" d="M592.91,1487.69a53,53,0,0,1,5.28,12.08,57.33,57.33,0,0,1,1.39,6.34,70.18,70.18,0,0,1,.89,12.38,85.31,85.31,0,0,1-1.37,14c-.17,1-.36,1.89-.56,2.83-.41,1.92-.89,3.83-1.46,5.71-.11.42-.24.83-.37,1.24-.18.64-.39,1.28-.62,1.92-.08.24-.15.47-.24.71-.28.81-.57,1.62-.87,2.41-.59,1.55-1.23,3.09-1.92,4.59-.19.42-.39.85-.59,1.27-.28.6-.58,1.2-.88,1.79l-.58,1.13-.2.37-.74,1.33c-.25.46-.52.91-.79,1.36s-.58,1-.89,1.48l-.07.09h0l-.25.41-.33.5,2.37.9h0q1.2.44,2.43.84a182,182,0,0,0,32.84,7c5.75.77,11.47,1.63,17.22,2.37h0q4.13.54,8.26,1l.2,0a117.85,117.85,0,0,0,19.67-2.7,110,110,0,0,0,16.61-5.35l0-.06a36,36,0,0,0-3.7-5.66c-.2-.25-.39-.47-.59-.7s-.4-.49-.61-.72a29.81,29.81,0,0,0,3.48-4.14c.26-.37.52-.75.76-1.14s.48-.76.71-1.15.46-.8.68-1.2l.37-.7a3.6,3.6,0,0,0,.26-.52.64.64,0,0,0,.1-.18c3.56-7.16,5.22-15.61,6.25-23.52,0-.33.08-.68.12-1s0-.38.05-.57a2.85,2.85,0,0,0,0-.29c0-.23,0-.47,0-.69s0-.5,0-.75c0-.48,0-1,0-1.45s0-1,0-1.49-.06-1.25-.13-1.86a5.54,5.54,0,0,0,0-.56,29,29,0,0,0-.53-3.4c-1.71-1.9-3.48-3.76-5.32-5.54a76.85,76.85,0,0,0-8-6.91c-11.41-8.49-24.36-14.94-38.51-17.1-14.48-2.19-29.65-.76-44,2Q595.89,1487,592.91,1487.69Zm-26.79,145.58c0,.24,0,.48,0,.72,0,2-.15,3.84-.24,5.2-.14,1.85-.38,3.68-.69,5.51,1.76.41,3.52.8,5.29,1.15a.86.86,0,0,0,.17,0,180,180,0,0,0,27.28,3.43,191.34,191.34,0,0,0,33.67-1.19,148.88,148.88,0,0,0,17.39-3.18l.36-.11h0c.28-.09.6-.2,1-.36.19-.53.38-1.06.56-1.6.36-1,.67-2.11,1-3.14.13-.48.25-.94.34-1.41s.17-.72.22-1.08c0-.17.07-.34.11-.51.07-.33.13-.64.18-1,.12-.57.22-1.15.3-1.71.06-.35.1-.71.15-1.07a36.66,36.66,0,0,0,11.7-2.7h0c.4-.16.77-.34,1.13-.5,9.14-4.29,16.05-12.4,20.43-21.34a53.34,53.34,0,0,0,5.2-18.3c.07-.68.12-1.36.16-2a.21.21,0,0,0,0-.08c0-.61.07-1.22.07-1.82a2.91,2.91,0,0,0,0-.3c0-.49,0-1,0-1.48,0-.23,0-.44,0-.67,0-.42,0-.84-.06-1.25s0-.84-.08-1.25-.07-.82-.12-1.23a44,44,0,0,0-1.12-6.08,72.13,72.13,0,0,1-15.27,6.78,132.93,132.93,0,0,1-41.09,5.79c-14.1-.12-28.57-2-42-6.41-1.75-.57-3.49-1.18-5.2-1.83.06.42.1.85.14,1.26a52.22,52.22,0,0,1-.74,14.65,66.23,66.23,0,0,1-1.57,6.47c-.13,1.17-.31,2.31-.49,3.4-.12.74-.26,1.48-.43,2.22-.13.59-.28,1.16-.44,1.74s-.33,1.16-.52,1.73-.38,1.15-.59,1.71-.43,1.13-.67,1.7-.41,1-.64,1.45c0,.12-.11.24-.16.37-.51,1.06-1,2.1-1.63,3.11a.06.06,0,0,1,0,0c-.59,1.05-1.23,2.09-1.91,3.09-.35.52-.71,1-1.07,1.53s-.6.81-.91,1.2l-.25.33a49.45,49.45,0,0,1-3.66,4.14.2.2,0,0,1-.06.07c-.85.86-1.74,1.69-2.64,2.48-.3.27-.61.53-.92.78s-.62.51-.93.76S566.37,1633,566.12,1633.27Zm-18.39,52.38,1.56-.08c1,0,2.06-.11,3.07-.16,2-.11,3.86-.23,5.67-.3l1.58-.06c15.44-.43,31.19-.78,46.4-3.78,13.62-2.69,26.63-8.71,35.27-19.89.11-.14.23-.28.33-.42.51-.67,1-1.35,1.46-2,.18-.27.37-.53.54-.8.34-.51.66-1,1-1.52.2-.32.39-.65.59-1,.88-1.51,1.7-3.06,2.46-4.62.17-.38.36-.76.52-1.14.06-.12.13-.25.18-.38h0a115,115,0,0,1-12.94,3.39c-12.5,2.62-25.44,3.24-38.19,2.92a152.92,152.92,0,0,1-33.54-4.31c-.7,2.53-1.52,5-2.41,7.5-1.4,3.87-3,8-4.93,12-.4.86-.82,1.73-1.25,2.58A67.41,67.41,0,0,1,547.73,1685.65Z" transform="translate(-196.07 -104.26)"/><path class="cls-6" d="M347.35,1544.22c-.05.85-.09,1.7-.12,2.54-1,22,4.1,47.38,21.92,62,7.59,6.24,16.68,10.06,26.07,9.84.16,0,.3,0,.46,0a30.78,30.78,0,0,0,4.46-.45q.72,1.89,1.53,3.66c0,.06.06.12.08.18s-.05-.19-.09-.28c-4.74-15.32-3.93-30.73-4.64-47-.1-2.26-.18-4.5-.26-6.72a278.21,278.21,0,0,1,1.5-43c.64-5.34,1.17-14,2.44-22.4s3.27-16.76,6.92-21.31a30.87,30.87,0,0,0-4.38-2.19,30.29,30.29,0,0,0-3.44-1.18q-1.31-.37-2.67-.63a30.51,30.51,0,0,0-18.4,2.32,15.75,15.75,0,0,1,1.75.64,6.14,6.14,0,0,1,2.68,1.51,9.85,9.85,0,0,1,2.47,2.52c2.6,4,1,8.17-.51,12.14a121.77,121.77,0,0,0-5.88,22c-1.37,7.92-1.7,16.16-3.64,24-1.33,5.37-4.13,11.19-9.8,13C357.47,1558.13,351.15,1551.5,347.35,1544.22Z" transform="translate(-196.07 -104.26)"/><path class="cls-7" d="M363,1496.58a18.65,18.65,0,0,1,13-5.64c3.46,9.82-1.9,23.5-3.63,33.3-1.05,6-2.19,20.38-10.36,20.36-9.75,0-10.33-16.24-9.69-22.61C353.35,1511.75,357.61,1505.94,363,1496.58Z" transform="translate(-196.07 -104.26)"/><path class="cls-5" d="M598.54,1535.37a79.74,79.74,0,0,1-10.47,25.82c.16,2.43,37.08,12.41,55.95,11.57a177.19,177.19,0,0,0,37.52-5.55l5.81-1.55a36,36,0,0,0-3.7-5.66c-.39-.49-.78-1-1.2-1.42a33.27,33.27,0,0,0,6.36-9c3.56-7.16,5.22-15.61,6.25-23.52a33.51,33.51,0,0,0-2.43-18.35c-9.27,2.44-19.21,2-28.78.94-14.54-1.67-29.07-5.63-43.79-4.13-5.82.59-14.64.87-20.48,1.62l-.16,0a117.33,117.33,0,0,1,1.05,12.36C600.64,1524.54,600.18,1530.55,598.54,1535.37Z" transform="translate(-196.07 -104.26)"/><path class="cls-6" d="M636.46,1465.91l.54-.32c-.49.9-1,1.79-1.55,2.64h0a38.38,38.38,0,0,1-3.6,6.09l-1.31.11c-2.19.17-4.36.39-6.55.65l-.34,0c-2.21.26-4.45.56-6.67.88l-1.53.23c-5.71.85-11.41,1.85-17.07,2.89-4.43.8-8.72,1.66-12.89,2.77-.37-.25-.77-.49-1.15-.72a1.9,1.9,0,0,0-.34-.2,2.45,2.45,0,0,0-.38-.24,1,1,0,0,0-.24-.15c-.63-.41-1.28-.79-1.93-1.18l-1-.57c-.94-.56-1.9-1.11-2.87-1.64s-2-1.1-2.93-1.62l-3.51-1.84c-1.09-.57-2.18-1.12-3.29-1.66-2.21-1.1-4.43-2.17-6.67-3.23-1.11-.54-2.24-1-3.37-1.57l-5.06-2.32c-1.68-.77-3.37-1.52-5-2.28-4.47-2-8.89-4-13.17-6.07-.8-.39-1.59-.76-2.39-1.12l-2.37-1-2.28-.93c-.81-.31-1.6-.63-2.39-.92s-1.91-.72-2.86-1l-.21,0c-14-4.78-27.12-6.23-42.55-8.26,5.59-2.81,18.12-1.73,24.94-1.86,29.08-.56,53.35,15,80.95,21.23,13.81,3.11,27.59,5.7,40.93-.19A27.87,27.87,0,0,0,639,1451.09a34.06,34.06,0,0,1-1.57,12.05C637.17,1464.07,636.84,1465,636.46,1465.91Z" transform="translate(-196.07 -104.26)"/><path class="cls-5" d="M391.1,1533.77c-2.15,27.58-1.12,57.37,4.58,84.85a30.78,30.78,0,0,0,4.46-.45q.72,1.89,1.53,3.66c0,.06.06.12.08.18.77,1.69,1.59,3.28,2.4,4.71,7.48,13.17,20.25,21,33.67,27.15,29.46,13.53,61,29.06,93.86,31a70.73,70.73,0,0,0,16.05.78l1.56-.08c1,0,2.06-.11,3.07-.16,2-.11,3.86-.23,5.67-.3l1.58-.06c15.44-.43,31.19-.78,46.4-3.78,13.62-2.69,26.63-8.71,35.27-19.89a166.53,166.53,0,0,1-31.18,6.86A351,351,0,0,1,562,1671c-1.87,0-3.78,0-5.71-.06-18.3-.32-38.86-2.29-55.64-10.32a86.92,86.92,0,0,1-39-24.57c-16.06-17.37-27.62-34.29-35.08-57a232.87,232.87,0,0,1-11.48-76.17c.3-13.19,1.07-31.21,6.77-45.28a38.42,38.42,0,0,0-4,4.75,2.25,2.25,0,0,0-.75.64,53.14,53.14,0,0,0-8.08,16.22c-.17.51-.33,1-.48,1.54l-.29.92-.11-.08-.57-.34a30.87,30.87,0,0,0-4.38-2.19C395.83,1497.26,392.33,1518.07,391.1,1533.77Z" transform="translate(-196.07 -104.26)"/><path class="cls-5" d="M565.75,1633.68a26,26,0,0,1-1.13,11.15,158.15,158.15,0,0,0,27.1,2.93,372.93,372.93,0,0,0,40.94-1.62c5.79-.53,11.7-.93,17.6-1.38q.35-.93.66-1.89c.36-1,.67-2.11,1-3.14a50.26,50.26,0,0,0,1.3-6.76,36.66,36.66,0,0,0,11.7-2.7h0c.4-.16.77-.34,1.13-.5,9.14-4.29,16.05-12.4,20.43-21.34a53.34,53.34,0,0,0,5.2-18.3,159.9,159.9,0,0,1-49.77,9.62,189.46,189.46,0,0,1-47.83-4.55l-2.17-.5-5.54-.53-1.16-.12a49.1,49.1,0,0,1-.41,6.59c-.13,1.17-.31,2.31-.49,3.4-1.81,10.89-8.45,21.35-17.45,28.46l-1.12.86A1.84,1.84,0,0,1,565.75,1633.68Z" transform="translate(-196.07 -104.26)"/><path class="cls-8" d="M522.07,1451.51c1,.35,2,.71,3.07,1.09.79.29,1.58.61,2.39.92l2.28.93,2.37,1c.8.36,1.59.73,2.39,1.12,4.28,2,8.7,4,13.17,6.07,1.68.75,3.37,1.51,5,2.28l5.06,2.32,3.37,1.57c2.24,1.06,4.46,2.13,6.67,3.23,1.1.55,2.2,1.1,3.29,1.66l3.51,1.84c1,.54,2,1.07,2.93,1.62s1.93,1.09,2.87,1.64l1,.57c.65.39,1.3.77,1.93,1.18a1,1,0,0,1,.24.15,2.45,2.45,0,0,1,.38.24,1.9,1.9,0,0,1,.34.2c.83.51,1.66,1,2.47,1.59a162.4,162.4,0,0,1,19.89-4.89c2.89-.58,5.81-1.14,8.75-1.64L617,1476c2.22-.36,4.44-.66,6.67-.88l.34,0c2.09-.2,4.19-.34,6.28-.38l.27-.27a36.1,36.1,0,0,0,4.91-6.2h0c.55-.85,1.06-1.74,1.55-2.64l-.54.32c-10.5,6.24-22.61,7.83-35,7.06-27.63-1.74-52.72-14.75-79.2-21.41Z" transform="translate(-196.07 -104.26)"/><path class="cls-8" d="M617,1561a192.9,192.9,0,0,0,21.33-1.69,257.41,257.41,0,0,0,26.16-3.58c5.28-.88,10.53-2,15.7-3.35,2.7-.73,5.66-1.56,8.56-2.64a33,33,0,0,1-6.26,8.85c.21.23.41.48.61.72-2.07.77-4.16,1.49-6.24,2.16-1.37.45-2.76.84-4.16,1.19-7,1.15-14.39,1.56-21.54,2.1-6,.45-12,.85-18,1.09-14.85-.54-29.44-2.79-44.14-4.75-.28-.14-.56-.28-.82-.43A243.58,243.58,0,0,0,617,1561Z" transform="translate(-196.07 -104.26)"/><path class="cls-8" d="M566.22,1632.09a11,11,0,0,1,1.14-1.52,139.56,139.56,0,0,0,34.63,5.54,127.61,127.61,0,0,0,20-.48,168.92,168.92,0,0,0,42.93-5.36,36.66,36.66,0,0,1-11.7,2.7c-.17,1.42-.43,2.84-.74,4.27-2.4.49-4.82,1.3-6.81,1.71-5,1-9.91,1.82-15,2.35a155.62,155.62,0,0,1-33.77-.17c-10.21-1.14-20.92-3-30.45-7l-1-.46a9.85,9.85,0,0,1,.75-1.58Z" transform="translate(-196.07 -104.26)"/><path class="cls-7" d="M505.13,1407.25c.88,9.16,25.49,26.48,31,30.22,21.41,14.49,51.3,21.57,76.93,15.66,7.78-1.79,18.75-6.43,22.25-14.4-4.64-7.35-12.54-9.27-20.9-8.06-20.92,3-41.39,1-60.29-9C538.68,1413.4,523.24,1400.34,505.13,1407.25Z" transform="translate(-196.07 -104.26)"/><path class="cls-7" d="M543.12,1644.48c-1.67,4-3.88,8.25-6.69,9.72l-.1,0c-.1-.61-.19-1.22-.28-1.83-4.4-29.07-13.63-56.61-29.17-81.16-9.25-15.69-20.7-30-34-41-5.38-5.23-11-10.23-16.78-14.9-7.38-6-15.13-11.41-22.76-17a198.55,198.55,0,0,0,3.37-35.53c0-1.77-.07-3.75-.2-5.82,6.26-.9,12.54-1.67,18.84-2.16,16.24-1.29,32.48-.7,48.38,3.06,15.62,3.68,30.27,10.35,44.5,17.66a366.36,366.36,0,0,1,34.24,19.81c1.17,4,2.08,7.84,2.83,11.24a85.07,85.07,0,0,1,1.55,9.54,64.6,64.6,0,0,1-3.1,15c-3.52,10.44-10.7,19.15-13.82,29.86-3,10.41-2.52,21.09-7,31.21-5.48,12.4-11.69,23.83-15.16,37A115.5,115.5,0,0,1,543.12,1644.48Z" transform="translate(-196.07 -104.26)"/><path class="cls-8" d="M408.59,1480.78c.19-.46.41-.9.64-1.35-.06-.06-.11-.13-.16-.19C408.9,1479.75,408.74,1480.27,408.59,1480.78Z" transform="translate(-196.07 -104.26)"/><path class="cls-8" d="M395.22,1618.63c.16,0,.3,0,.46,0a30.78,30.78,0,0,0,4.46-.45q.72,1.89,1.53,3.66s0-.07,0-.1c-1.24-17.8-3.59-35.8-4.9-53.76-1.61-22.06-1.63-44,3.94-65.38a122.66,122.66,0,0,1,7.49-21l-.57-.34a30.87,30.87,0,0,0-4.38-2.19,30.29,30.29,0,0,0-3.44-1.18C392.63,1500.9,379.57,1583.87,395.22,1618.63Z" transform="translate(-196.07 -104.26)"/><ellipse cx="590.03" cy="790.68" rx="79.6" ry="45.87" transform="translate(-492.34 1119.78) rotate(-79.32)"/><path class="cls-15" d="M596.28,757.54a32.38,32.38,0,1,0,37.82-25.82A32.39,32.39,0,0,0,596.28,757.54Z" transform="translate(-196.07 -104.26)"/><path class="cls-15" d="M552.79,820.73a17.54,17.54,0,1,0,20.49-14A17.54,17.54,0,0,0,552.79,820.73Z" transform="translate(-196.07 -104.26)"/><ellipse cx="816.38" cy="813.49" rx="58.53" ry="33.73" transform="translate(-330.33 1360.78) rotate(-79.32)"/><path class="cls-15" d="M817.67,791.52a22.56,22.56,0,1,0,26.35-18A22.56,22.56,0,0,0,817.67,791.52Z" transform="translate(-196.07 -104.26)"/><path class="cls-15" d="M787.37,835.55a12.22,12.22,0,1,0,14.27-9.74A12.22,12.22,0,0,0,787.37,835.55Z" transform="translate(-196.07 -104.26)"/><path class="cls-15" d="M453.35,741.89c5,122.81,82.09,219.32,172.27,215.69,50.27-2.08,94-34.84,121.87-84.68a1.59,1.59,0,0,1,.15.21,156.21,156.21,0,0,0,13.6,22.19c20.79,28.4,49.26,46.6,81.54,48.57C913,948.1,974.51,874.06,980.32,778.51S933.9,602,863.73,597.79c-30.28-1.85-58.82,10.92-82.1,33.68a161.11,161.11,0,0,0-15.79,18.11,254,254,0,0,0-11.06-28.4c-30.75-67-85.95-110.75-147.22-108.26C517.38,516.55,448.35,619.08,453.35,741.89Z" transform="translate(-196.07 -104.26)"/><path class="cls-6" d="M453.35,741.89c5,122.81,82.09,219.32,172.27,215.69a122.29,122.29,0,0,0,39.17-8.21c-11.08,0-83.35-20.46-129-86.88C479.93,772.2,480.56,622.64,546,532.32,488.07,568.05,449.57,649.13,453.35,741.89ZM755.12,858.1c-2.39,5.06-4.87,10.06-7.48,15,2.16,4.27,4.52,8.38,7,12.36,2.1,3.4,4.29,6.69,6.61,9.83,20.79,28.4,49.26,46.6,81.54,48.57,41,2.47,78.83-21.83,104.5-61.41-23.6,21.89-53.46,35.51-84.2,33-20.75,1.25-41.34-2.2-58.4-10.94-15.58-8-28.16-20.32-38-35.2a609.17,609.17,0,0,0,7.47-65,260.62,260.62,0,0,1-16.74,48.62c-.07-.14-.15-.27-.21-.4C756.58,854.4,755.79,856.22,755.12,858.1Zm-.34-236.92c-.09,0-.1.07-.19.06,15.53,39.7,24.27,80.41,20.09,123,5.81-13.77,9.25-75.84,7-112.77a161.11,161.11,0,0,0-15.79,18.11A254,254,0,0,0,754.78,621.18Z" transform="translate(-196.07 -104.26)"/><path class="cls-6" d="M808.68,921.6c-15.56-8.34-27.83-19.75-38.77-33.53l-2.38-3a151.47,151.47,0,0,1-15.78-20c-1.34,2.71-2.7,5.4-4.11,8.07,2.16,4.27,4.52,8.38,7,12.36,2.1,3.4,4.29,6.69,6.61,9.83,20.79,28.4,49.26,46.6,81.54,48.57a97.55,97.55,0,0,0,47.37-9.31C863.28,941.38,832.4,934.3,808.68,921.6ZM630.74,949.2a199.1,199.1,0,0,1-58-26.33c-65.05-43-103.6-119-113.2-195.12a281.85,281.85,0,0,1-1.74-50.87,297.13,297.13,0,0,0-4.42,65c5,122.81,82.09,219.32,172.27,215.69a121.08,121.08,0,0,0,27-4.21A149.86,149.86,0,0,1,630.74,949.2Z" transform="translate(-196.07 -104.26)"/><path class="cls-16" d="M727.25,409.89s7.37,15.4,7.55,64l-10.67,12s-106.39-60.23-189.84,15.61l-5.63-4.8C526.87,427.1,608.45,379.66,727.25,409.89Z" transform="translate(-196.07 -104.26)"/><path class="cls-10" d="M719.39,424.64S731.7,435.48,733.83,475l1-1.09c-.18-48.63-7.55-64-7.55-64-99.1-25.22-172.29,3.62-192.8,54.29C562.25,423,630.37,402,719.39,424.64Z" transform="translate(-196.07 -104.26)"/><path class="cls-8" d="M710.14,458.84c-34.71-14.13-75.72-12.73-111.18-2.16-20.2,6-39.52,14.17-56.76,26.45a126.84,126.84,0,0,0-13.56,11.12c0,.83,0,1.65,0,2.48l5.63,4.8c83.45-75.84,189.83-15.61,189.83-15.61l10.68-12c0-.48,0-.94,0-1.42A112.43,112.43,0,0,0,710.14,458.84Z" transform="translate(-196.07 -104.26)"/><path class="cls-8" d="M734.79,472.5a112.43,112.43,0,0,0-24.65-13.66,136.65,136.65,0,0,0-27.83-7.92c-7,5-14.22,9.77-21.51,14.41,36.87,5.62,63.32,20.59,63.32,20.59l10.68-12C734.8,473.44,734.79,473,734.79,472.5Z" transform="translate(-196.07 -104.26)"/><path class="cls-16" d="M883.8,446.88l-17.89,10.64-10.6,51.26s62.72,4.35,126.53,107l10.22-4.61S1002.6,505.71,883.8,446.88Z" transform="translate(-196.07 -104.26)"/><path class="cls-10" d="M887,448.47c-.42,4.5-1,9-1.65,13.46,90.92,47.44,102.51,122.6,103.51,150.71l3.23-1.45S1002.41,507.6,887,448.47Z" transform="translate(-196.07 -104.26)"/><path class="cls-8" d="M883.8,446.88l-17.89,10.64-10.6,51.26s62.72,4.35,126.53,107l10.22-4.61c-16-40.54-60-86.84-113.93-112.9Z" transform="translate(-196.07 -104.26)"/><path class="cls-8" d="M876,499.76l.78-.4,1.75-.86-.41-.21,5.67-51.41-17.89,10.64-10.6,51.26s1.05.08,3,.42C864.12,505.89,870,502.77,876,499.76Z" transform="translate(-196.07 -104.26)"/><ellipse cx="605.93" cy="776.56" rx="105.6" ry="62.5" transform="translate(-472.72 1109.61) rotate(-78.39)"/><path class="cls-15" d="M536.81,738.16C530.27,770,542,799.36,563,803.67s43.31-18,49.85-49.9-5.16-61.19-26.15-65.51S543.36,706.29,536.81,738.16Z" transform="translate(-196.07 -104.26)"/><path class="cls-15" d="M600.63,820.21c-1.91,9.32,4.41,18.5,14.13,20.5s19.14-4,21.06-13.28-4.41-18.5-14.13-20.5S602.55,810.88,600.63,820.21Z" transform="translate(-196.07 -104.26)"/><ellipse cx="833.07" cy="805.6" rx="95.33" ry="56.42" transform="translate(-319.73 1355.31) rotate(-78.39)"/><ellipse class="cls-15" cx="799.04" cy="770.94" rx="48.96" ry="32.24" transform="translate(-312.96 1294.29) rotate(-78.39)"/><path class="cls-15" d="M822.63,846.1c-1.63,7.93,3.75,15.73,12,17.42s16.27-3.35,17.9-11.28-3.75-15.73-12-17.43S824.26,838.17,822.63,846.1Z" transform="translate(-196.07 -104.26)"/><path class="cls-17" d="M541.22,967s-8.12,18.81-6.53,44.63c2.83,45.88,36.39,113.89,200.95,137.59,15.21-5.89,46.05-34,72-59.44l1.15-1.14,1-1,1.87-1.84.57-.56,5.72-5.7.85-.86.24-.24.89-.89,2.62-2.64,1-1,.09-.1c.51-.52,1-1,1.52-1.53l2.95-3,.68-.7c2.16-2.2,4.2-4.3,6.11-6.27l1.25-1.28c.13-.15.27-.29.4-.43l.8-.82.78-.81.57-.59.94-1,.48-.49c.57-.61,1.14-1.19,1.68-1.76.2-.21.41-.42.6-.63l.33-.34.6-.63.63-.66.79-.83,3.21-3.39.39-.41.54-.57.25-.26,1.08-1.15.09-.1.09-.1.47-.49c-3.84-7.37-24.13-19.16-24.13-19.16l-1.05.11C702.22,1039.56,541.22,967,541.22,967Z" transform="translate(-196.07 -104.26)"/><path class="cls-8" d="M825.64,1026.63l1.05-.11s20.29,11.79,24.13,19.16l-.47.49-.09.1-.09.1-1.08,1.15-.25.26-.54.57-.39.41-3.21,3.39-.79.83-.63.66-.6.63-.33.34c-.19.21-.4.42-.6.63-.54.57-1.11,1.15-1.68,1.76l-.48.49-.94,1-.57.59-.78.81-.8.82c-.13.14-.27.28-.4.43l-1.25,1.28c-1.91,2-4,4.07-6.11,6.27l-.68.7-2.95,3c-.51.5-1,1-1.52,1.53l-.09.1-1,1-2.62,2.64-.89.89-.24.24-.85.86-5.72,5.7-.57.56-1.87,1.84-1,1-1.15,1.14c-25.95,25.45-56.79,53.55-72,59.44q-18-2.6-33.95-5.87a47.07,47.07,0,0,0,2.5-12.23c1.33-18.07-7.09-36-19.57-48.72-12.73-13-29.32-21.11-47.57-22-19-.9-37.95,5.61-50.67,20a59.28,59.28,0,0,0-7.94,11.6c-32.43-26.55-42.27-56.51-43.75-80.44-1.59-25.82,6.53-44.63,6.53-44.63S702.22,1039.56,825.64,1026.63Z" transform="translate(-196.07 -104.26)"/><path class="cls-8" d="M825.64,1026.63l1.05-.11s20.29,11.79,24.13,19.16l-.47.49-.09.1-.09.1-1.08,1.15-.25.26-.54.57-.39.41-3.21,3.39-.79.83-.63.66-.6.63-.33.34c-.19.21-.4.42-.6.63-.54.57-1.11,1.15-1.68,1.76l-.48.49-.94,1-.57.59-.78.81-.8.82c-.13.14-.27.28-.4.43l-1.25,1.28c-1.91,2-4,4.07-6.11,6.27l-.68.7-2.95,3c-.51.5-1,1-1.52,1.53l-.09.1-1,1-2.62,2.64-.89.89-.24.24-.85.86-5.72,5.7-.57.56-1.87,1.84-1,1-1.15,1.14c-25.95,25.45-56.79,53.55-72,59.44q-4-.57-7.9-1.19c8.74-9.34,13.27-22.61,10.32-35.45-4.25-18.58-20.69-32.43-36.68-41.23-18-9.88-37.15-17.77-57.25-22a107.8,107.8,0,0,0-31.53-2.29c-10.81.92-22,4.29-30.49,11.24-7.76,6.34-12,15.46-13.38,25.11-24.75-24.24-32.72-50.39-34-71.75-1.59-25.82,6.53-44.63,6.53-44.63S702.22,1039.56,825.64,1026.63Z" transform="translate(-196.07 -104.26)"/><path class="cls-15" d="M541.22,967s-.41,1-1,2.72a110.13,110.13,0,0,0-5.5,41.91c22.61,11.42,65.42,32.73,74.1,36.79,27.84,13.06,56.71,24,86.58,31.33,25.1,6.21,51.12,10.33,77,10.7q17.37.24,34.74-.17c.17-.17.34-.34.52-.5l1.15-1.14,1-1,1.87-1.84.57-.56,5.72-5.7.85-.86.24-.24.89-.89,2.62-2.64,1-1,.09-.1c.51-.52,1-1,1.52-1.53l2.95-3,.68-.7c2.16-2.2,4.2-4.3,6.11-6.27l1.25-1.28c.13-.15.27-.29.4-.43l.8-.82.78-.81.57-.59.94-1,.48-.49c.57-.61,1.14-1.19,1.68-1.76l.6-.63.33-.34.6-.63.63-.66.79-.83,3.21-3.39.39-.41.54-.57.25-.26,1.08-1.15.09-.1.09-.1.47-.49a21.92,21.92,0,0,0-4.57-5.37l-.35-.31-.24-.22-.11-.1-.35-.31-.37-.31-.75-.63-.31-.26-.45-.36-.05,0-.34-.27-.16-.13c-.2-.16-.41-.33-.63-.49l-.13-.11-.51-.39-.56-.42-.41-.31-.07-.06-.53-.38c-.61-.45-1.23-.9-1.85-1.33l-.4-.29c-.59-.41-1.16-.81-1.73-1.19l-.28-.19-1.41-.94-.46-.31-1.67-1.09-.81-.52-.23-.14-.36-.23-.63-.39-.18-.11c-2-1.23-3.23-2-3.23-2l-1.05.11C702.22,1039.56,541.22,967,541.22,967Z" transform="translate(-196.07 -104.26)"/><path class="cls-8" d="M548.91,970.36h0c33.1,13.91,166.56,66.43,273.44,56.59h0l3.29-.32,1.05-.11s1.27.73,3.23,2l.18.11.63.39.36.23.23.14.81.52,1.67,1.09.46.31,1.41.94.28.19c.57.38,1.14.78,1.73,1.19l.4.29c.62.43,1.24.88,1.85,1.33l.53.38.07.06.41.31.56.42.51.39.13.11c.22.16.43.33.63.49l.16.13.34.27.05,0,.45.36.31.26.75.63.37.31.35.31.11.1.24.22.35.31a21.92,21.92,0,0,1,4.57,5.37l-.47.49-.09.1-.09.1-1.08,1.15-.25.26-.54.57-.39.41-3.21,3.39-.79.83-.63.66-.6.63-.33.34-.6.63c-.54.57-1.11,1.15-1.68,1.76l-.48.49-.94,1-.57.59-.78.81-.8.82c-.13.14-.27.28-.4.43l-1.25,1.28c-1.91,2-4,4.07-6.11,6.27l-.68.7-2.95,3c-.51.5-1,1-1.52,1.53l-.09.1-1,1-2.62,2.64-.89.89-.24.24-.85.86-5.72,5.7-.57.56-1,.94c.76-1,1.49-2,2.2-3,7.94-11.65,13.28-26.13,12.81-40.42-1.52.17-3,.32-4.56.47-1.3.12-2.61.19-3.91.29-1.68,0-3.35,0-5,0a545,545,0,0,1-84.78-7.48,510.53,510.53,0,0,1-127-38.91c-5.78-2.64-34.25-15.35-52.74-24.29-.44,1.13-.86,2.27-1.26,3.41a127.59,127.59,0,0,0-7.44,37l-4.25-2.14a110.13,110.13,0,0,1,5.5-41.91c.62-1.77,1-2.72,1-2.72S543.93,968.26,548.91,970.36Z" transform="translate(-196.07 -104.26)"/><path class="cls-6" d="M690.31,1173.38c-29.12-11.24-112.58-53.78-131-85.47,42.08,38.87,86.8,55.47,136.48,68,12.26,3.09,23.07,5.55,35.62,3.55,10.16-1.61,19.43-8.45,28.08-14,6.33-4,13.32-10.07,18.88-15.19C754,1178,731,1184.06,690.31,1173.38Z" transform="translate(-196.07 -104.26)"/><path class="cls-6" d="M710.17,1167.14a49,49,0,0,0,38.74-9.43c9.92-7.71,20.75-17.25,27.06-22.94q1.17-2.18,2.35-4.48c-5.56,5.12-12.55,11.15-18.88,15.19-8.65,5.52-17.92,12.36-28.08,14-12.55,2-23.36-.46-35.62-3.55-49.68-12.52-94.4-29.12-136.48-68C597.66,1123.38,645.59,1155.63,710.17,1167.14Z" transform="translate(-196.07 -104.26)"/><path class="cls-18" d="M579.11,1066.72q15.43,1.17,30.7,3.86,3.83.66,7.62,1.44l2.12.43.77.16.19.05c1.26.27,2.53.55,3.79.84q7.58,1.76,15.05,3.87a265.75,265.75,0,0,1,29,10.07q7.07,2.94,13.93,6.33l.73.37.51.26,1.65.85c1,.54,2.07,1.09,3.1,1.65,2.17,1.18,4.31,2.38,6.43,3.63a169.61,169.61,0,0,1,23.69,16.65c2,1.67,2.82,2.43,4.77,4.23,1.7,1.58,3.36,3.19,5,4.85,1.83,1.87,3.63,3.76,5.28,5.79a65.17,65.17,0,0,1,4.15,5.71,76,76,0,0,1,4.5,8.25,44.38,44.38,0,0,1-6.47,3.25c-106.2-15.3-157.83-49-181.87-83.39Q566.46,1065.75,579.11,1066.72Z" transform="translate(-196.07 -104.26)"/><path class="cls-6" d="M583.05,1079.25a330.92,330.92,0,0,0,46.44,26.58,261.79,261.79,0,0,0,49,17.76,199.13,199.13,0,0,0,43.19,5.77c3.08.06,6.25.08,9.45,0,.81.88,1.6,1.78,2.36,2.71a65.17,65.17,0,0,1,4.15,5.71,76,76,0,0,1,4.5,8.25,44.38,44.38,0,0,1-6.47,3.25c-106.2-15.3-157.83-49-181.87-83.39,3.75,0,7.49,0,11.24.12Q573.8,1072.9,583.05,1079.25Z" transform="translate(-196.07 -104.26)"/><path class="cls-10" d="M636,1080c16.11,1,44.93,15.94,50.77,31-13.33,7.3-45.5-4.84-56.87-12.35C619.6,1091.85,617.61,1076.11,636,1080Z" transform="translate(-196.07 -104.26)"/></svg>