<svg id="Layer_1" data-name="Layer 1" xmlns="http://www.w3.org/2000/svg" xmlns:xlink="http://www.w3.org/1999/xlink" viewBox="0 0 134.37 115.94"><defs><style>.cls-1{fill:none;}.cls-2{fill:#fff;}.cls-3{fill-opacity:0.5;}.cls-4{fill:#c7891f;}.cls-5{fill:url(#linear-gradient);}.cls-6{fill:url(#linear-gradient-2);}.cls-7{fill:url(#b);}.cls-8{fill:url(#linear-gradient-3);}.cls-9{fill:url(#linear-gradient-4);}.cls-10{fill:url(#linear-gradient-5);}.cls-11{fill:url(#linear-gradient-6);}</style><linearGradient id="linear-gradient" x1="6.71" y1="125.54" x2="67.51" y2="88.27" gradientTransform="matrix(1, 0, 0, -1, 0, 192)" gradientUnits="userSpaceOnUse"><stop offset="0" stop-color="#ebf0d0"/><stop offset="1" stop-color="#ffffeb"/></linearGradient><linearGradient id="linear-gradient-2" x1="160.54" y1="142.55" x2="103.15" y2="214.7" gradientTransform="matrix(0.85, 0, 0, -1.17, -68.36, 300.5)" gradientUnits="userSpaceOnUse"><stop offset="0" stop-color="#830007"/><stop offset="1" stop-color="red"/></linearGradient><pattern id="b" data-name="b" width="14.14" height="13.75" patternTransform="matrix(1, 0, 0, -1, 17.31, 1089)" patternUnits="userSpaceOnUse" viewBox="0 0 14.14 13.75"><rect class="cls-1" width="14.14" height="13.75"/><path class="cls-2" d="M3.54,13.75l3.53-3.54L3.54,6.68,0,10.21Z"/><path class="cls-2" d="M3.54,7.07,7.07,3.54,3.54,0,0,3.54Z"/><path class="cls-2" d="M10.61,13.75l3.53-3.54L10.61,6.68,7.07,10.21Z"/><path class="cls-2" d="M10.61,7.07l3.53-3.53L10.61,0,7.07,3.54Z"/></pattern><linearGradient id="linear-gradient-3" x1="94.25" y1="215.01" x2="164.71" y2="145.15" gradientTransform="matrix(0.86, 0, 0, -1.17, -67.83, 299.55)" xlink:href="#linear-gradient-2"/><linearGradient id="linear-gradient-4" x1="50.64" y1="109.52" x2="110.42" y2="72.87" gradientTransform="matrix(0.97, 0.26, 0.26, -0.97, -19.74, 151.6)" xlink:href="#linear-gradient"/><linearGradient id="linear-gradient-5" x1="210.79" y1="129.75" x2="154.27" y2="200.82" gradientTransform="matrix(0.83, 0.22, 0.3, -1.13, -113.73, 238.85)" xlink:href="#linear-gradient-2"/><linearGradient id="linear-gradient-6" x1="50.29" y1="139.82" x2="122.28" y2="68.46" gradientTransform="translate(29.7 -33.92) rotate(14.92)" xlink:href="#linear-gradient-2"/></defs><title>cards_for_player</title><path class="cls-3" d="M14.49,39.46h60.1a9.05,9.05,0,0,1,9.34,8.78v84A9.05,9.05,0,0,1,74.59,141H14.49a9.05,9.05,0,0,1-9.34-8.79v-84A9.05,9.05,0,0,1,14.49,39.46Z" transform="translate(-2.81 -31.66)"/><path class="cls-2" d="M12.15,37.27H72.26a9.05,9.05,0,0,1,9.34,8.78v84a9.06,9.06,0,0,1-9.34,8.78H12.15A9.06,9.06,0,0,1,2.81,130v-84A9.05,9.05,0,0,1,12.15,37.27Z" transform="translate(-2.81 -31.66)"/><path class="cls-4" d="M13.32,38.36H73.43a9,9,0,0,1,9.33,8.78v84a9,9,0,0,1-9.33,8.78H13.32A9.06,9.06,0,0,1,4,131.11v-84A9.06,9.06,0,0,1,13.32,38.36Z" transform="translate(-2.81 -31.66)"/><path class="cls-5" d="M12.73,37.81H72.84a9.05,9.05,0,0,1,9.34,8.78v84a9.05,9.05,0,0,1-9.34,8.78H12.73a9,9,0,0,1-9.33-8.78v-84A9,9,0,0,1,12.73,37.81Z" transform="translate(-2.81 -31.66)"/><path class="cls-6" d="M15.17,42.2h55.1a8.3,8.3,0,0,1,8.56,8v77a8.3,8.3,0,0,1-8.56,8.05H15.17a8.29,8.29,0,0,1-8.56-8.05v-77A8.29,8.29,0,0,1,15.17,42.2Z" transform="translate(-2.81 -31.66)"/><path class="cls-7" d="M15.17,42.2h55.1a8.3,8.3,0,0,1,8.56,8v77a8.3,8.3,0,0,1-8.56,8.05H15.17a8.29,8.29,0,0,1-8.56-8.05v-77A8.29,8.29,0,0,1,15.17,42.2Z" transform="translate(-2.81 -31.66)"/><path class="cls-8" d="M15.16,41.86a8.65,8.65,0,0,0-8.92,8.39v77a8.66,8.66,0,0,0,8.92,8.41H70.27a8.66,8.66,0,0,0,8.92-8.41v-77a8.65,8.65,0,0,0-8.92-8.39Zm0,.69H70.27a7.92,7.92,0,0,1,8.19,7.7v77a7.94,7.94,0,0,1-8.19,7.72H15.16A7.94,7.94,0,0,1,7,127.21v-77A7.92,7.92,0,0,1,15.16,42.55Z" transform="translate(-2.81 -31.66)"/><path class="cls-3" d="M72.17,34.65l58.08,14.56A8.72,8.72,0,0,1,136.87,60l-23,81.13a9.4,9.4,0,0,1-11.43,6.23L44.37,132.75A8.72,8.72,0,0,1,37.75,122l23-81.14A9.39,9.39,0,0,1,72.17,34.65Z" transform="translate(-2.81 -31.66)"/><path class="cls-2" d="M70.51,32l58.08,14.56a8.72,8.72,0,0,1,6.62,10.74l-23,81.14a9.39,9.39,0,0,1-11.42,6.22L42.71,130.07a8.72,8.72,0,0,1-6.61-10.75l23-81.13A9.39,9.39,0,0,1,70.51,32Z" transform="translate(-2.81 -31.66)"/><path class="cls-4" d="M71.34,33.31l58.08,14.55A8.73,8.73,0,0,1,136,58.61l-23,81.13A9.38,9.38,0,0,1,101.62,146L43.54,131.41a8.73,8.73,0,0,1-6.62-10.75l23-81.13A9.39,9.39,0,0,1,71.34,33.31Z" transform="translate(-2.81 -31.66)"/><path class="cls-9" d="M70.93,32.64,129,47.19a8.73,8.73,0,0,1,6.62,10.75l-23,81.13a9.4,9.4,0,0,1-11.43,6.22L43.13,130.74A8.73,8.73,0,0,1,36.51,120l23-81.13A9.38,9.38,0,0,1,70.93,32.64Z" transform="translate(-2.81 -31.66)"/><path class="cls-10" d="M72.07,37.47l53.25,13.34a8,8,0,0,1,6.06,9.85L110.31,135a8.62,8.62,0,0,1-10.48,5.71L46.59,127.39a8,8,0,0,1-6.07-9.85L61.6,43.17A8.6,8.6,0,0,1,72.07,37.47Z" transform="translate(-2.81 -31.66)"/><path class="cls-7" d="M72.07,37.47l53.25,13.34a8,8,0,0,1,6.06,9.85L110.31,135a8.62,8.62,0,0,1-10.48,5.71L46.59,127.39a8,8,0,0,1-6.07-9.85L61.6,43.17A8.6,8.6,0,0,1,72.07,37.47Z" transform="translate(-2.81 -31.66)"/><path class="cls-11" d="M72.16,37.13a9,9,0,0,0-10.91,5.95L40.17,117.45a8.35,8.35,0,0,0,6.32,10.28l53.25,13.34a9,9,0,0,0,10.92-6l21.08-74.37a8.33,8.33,0,0,0-6.33-10.26ZM72,37.8l53.26,13.34a7.63,7.63,0,0,1,5.8,9.42L110,134.94a8.24,8.24,0,0,1-10,5.47L46.68,127.07a7.65,7.65,0,0,1-5.8-9.44L62,43.25A8.22,8.22,0,0,1,72,37.8Z" transform="translate(-2.81 -31.66)"/></svg>