<svg id="Layer_1" data-name="Layer 1" xmlns="http://www.w3.org/2000/svg" viewBox="0 0 2585.87 1558.07"><defs><style>.cls-1,.cls-20,.cls-24{fill:none;}.cls-1{stroke:#e4e4e4;stroke-width:4px;stroke-dasharray:32.09 32.09;}.cls-1,.cls-20,.cls-24,.cls-8{stroke-miterlimit:10;}.cls-2{fill:#f6f5f5;}.cls-3{fill:#1780a1;}.cls-4{fill:#e4e4e4;}.cls-5,.cls-8{fill:#fff;}.cls-6{fill:#2e6f95;}.cls-7{fill:#d3dfff;}.cls-8{stroke:#708cd5;stroke-width:6px;}.cls-9{fill:#a01a58;}.cls-10{fill:#f9b384;}.cls-11,.cls-16{fill:#e28b6d;}.cls-12,.cls-14{fill:#102048;}.cls-13{fill:#455e89;}.cls-14,.cls-16,.cls-23{opacity:0.6;}.cls-15,.cls-21{fill:#1f3c88;}.cls-15,.cls-20{opacity:0.3;}.cls-17,.cls-23{fill:#6f3428;}.cls-18{fill:#ee6f57;}.cls-19{fill:#fbc343;}.cls-20{stroke:#6f3428;}.cls-20,.cls-24{stroke-width:8px;}.cls-22{fill:#fc8879;opacity:0.4;}.cls-24{stroke:#102048;}</style></defs><title>ChecklistEdited</title><path class="cls-1" d="M2745.57,1197.42c125.27,224.17-56,664-1205.64,358.33-576.41-153.26-1007,192-1095.7-49C237.57,945.42,1081.57,296.08,1550.9,749.42,1979.89,1163.79,2517.57,789.42,2745.57,1197.42Z" transform="translate(-273.99 -134.38)"/><path class="cls-2" d="M2739,1690.86H394.89c73.36-542,570.08-961.24,1172-961.24S2665.61,1148.86,2739,1690.86Z" transform="translate(-273.99 -134.38)"/><rect class="cls-3" x="1203.42" y="138.36" width="1030.33" height="1413.36" rx="74.32"/><rect class="cls-2" x="1296.54" y="195.32" width="848.04" height="1231.88"/><path class="cls-4" d="M2418.56,329.7c.27,480.37,15.78,1059.72-38.18,1188-237.67,23.16-516,30.59-809.87,32L1682.24,333.42Z" transform="translate(-273.99 -134.38)"/><path class="cls-5" d="M2342.4,1478.87c-370.45,59.29-618,62.41-818.83,47.5,26-277,36.45-737.17,46.94-1196.61l446.39,1,404,26.67C2426.79,834.27,2427.43,1274.74,2342.4,1478.87Z" transform="translate(-273.99 -134.38)"/><rect class="cls-6" x="1764.52" y="448.55" width="446.24" height="67.97" transform="translate(-262.09 -181.01) rotate(1.35)"/><rect class="cls-6" x="1894.69" y="615.35" width="402.51" height="31.11" transform="translate(-258.57 -183.52) rotate(1.35)"/><rect class="cls-7" x="1893.11" y="681.65" width="273.59" height="31.11" transform="translate(-257.02 -181.95) rotate(1.35)"/><rect class="cls-8" x="1671.92" y="608.33" width="95.29" height="95.29" transform="translate(-258.08 -174.66) rotate(1.35)"/><path class="cls-9" d="M1688.58,632.29c2.94,11.26,8.37,58.43,32,45.24,5.45-3,10.06-11.08,14.13-15.71l22-25L1800.62,587c3.75-4.26-12.82-15-17.54-9.6L1744,621.73l-19.53,22.17c-4.52,5.13-15,21.68-21.67,23.15l10.94,3.53c2.57,2.11-2.21-12.87-2.32-13.28q-2.73-10.42-5.45-20.87c-1.5-5.74-19.64-12.65-17.41-4.14Z" transform="translate(-273.99 -134.38)"/><rect class="cls-6" x="1890.62" y="787.71" width="331.46" height="31.11" transform="translate(-254.52 -182.54) rotate(1.35)"/><rect class="cls-7" x="1889.01" y="856.36" width="402.51" height="31.11" transform="matrix(1, 0.02, -0.02, 1, -252.9, -183.32)"/><rect class="cls-8" x="1667.84" y="781.53" width="95.29" height="95.29" transform="translate(-254.01 -174.51) rotate(1.35)"/><path class="cls-9" d="M1684.44,808.17c2.94,11.26,8.37,58.43,32,45.24,5.45-3,10.06-11.09,14.13-15.71l22-25,43.94-49.89c3.75-4.26-12.82-15-17.53-9.6q-19.54,22.17-39.07,44.35l-19.53,22.17c-4.52,5.13-15,21.68-21.67,23.14l10.94,3.54c2.57,2.11-2.21-12.87-2.32-13.28l-5.45-20.87c-1.5-5.75-19.64-12.66-17.41-4.14Z" transform="translate(-273.99 -134.38)"/><rect class="cls-6" x="1886.53" y="961.73" width="402.51" height="31.11" transform="translate(-250.42 -183.23) rotate(1.35)"/><rect class="cls-7" x="1884.97" y="1026.93" width="180.01" height="31.11" transform="translate(-248.92 -180.56) rotate(1.35)"/><rect class="cls-8" x="1663.76" y="954.72" width="95.29" height="95.29" transform="translate(-249.93 -174.37) rotate(1.35)"/><path class="cls-9" d="M1681.65,982.59c2.94,11.26,8.38,58.43,32,45.24,5.44-3,10.06-11.08,14.13-15.71l22-25,44-49.89c3.75-4.26-12.83-14.95-17.54-9.6L1737.1,972l-19.53,22.17c-4.52,5.13-15,21.68-21.67,23.15l10.93,3.53c2.58,2.11-2.21-12.87-2.31-13.28q-2.73-10.43-5.45-20.87c-1.5-5.74-19.64-12.65-17.42-4.14Z" transform="translate(-273.99 -134.38)"/><rect class="cls-6" x="1882.46" y="1134.93" width="402.51" height="31.11" transform="translate(-246.34 -183.09) rotate(1.35)"/><rect class="cls-7" x="1880.87" y="1201.75" width="317.97" height="31.11" transform="translate(-244.78 -182.04) rotate(1.35)"/><rect class="cls-8" x="1659.69" y="1127.91" width="95.29" height="95.29" transform="translate(-245.86 -174.22) rotate(1.35)"/><path class="cls-9" d="M1677.6,1154.65c3,11.26,8.38,58.42,32,45.23,5.44-3,10.06-11.08,14.13-15.7l22-25,44-49.89c3.75-4.27-12.82-15-17.54-9.61l-39.06,44.35-19.53,22.18c-4.52,5.13-15,21.67-21.67,23.14l10.93,3.53c2.58,2.12-2.21-12.87-2.31-13.27q-2.73-10.44-5.45-20.87c-1.5-5.75-19.64-12.66-17.42-4.14Z" transform="translate(-273.99 -134.38)"/><rect class="cls-6" x="1878.45" y="1303.95" width="159.55" height="31.11" transform="translate(-242.4 -180.09) rotate(1.35)"/><path class="cls-7" d="M2279.64,1379.36l-402.4-9.47-.73,31.11c155.68,3.65,353.91,10.94,394.35,4.74C2277,1398.76,2280.32,1390.18,2279.64,1379.36Z" transform="translate(-273.99 -134.38)"/><rect class="cls-8" x="1656.98" y="1299.82" width="95.29" height="95.29" transform="translate(-241.81 -174.11) rotate(1.35)"/><path class="cls-9" d="M1673.59,1325.2c2.94,11.25,8.37,58.42,32,45.23,5.45-3,10.06-11.08,14.14-15.71l22-24.94,43.94-49.9c3.76-4.26-12.82-15-17.53-9.6L1729,1314.63l-19.53,22.18c-4.52,5.13-15,21.67-21.68,23.14l10.94,3.53c2.58,2.12-2.21-12.87-2.32-13.28q-2.71-10.42-5.45-20.86c-1.5-5.75-19.63-12.66-17.41-4.14Z" transform="translate(-273.99 -134.38)"/><path class="cls-9" d="M2183.57,281.3v95.08h-382V281.3a54.88,54.88,0,0,1,16.08-38.84,45.49,45.49,0,0,1,3.88-3.48,54.52,54.52,0,0,1,35-12.6,64.68,64.68,0,0,0,28.08-6.4,67.27,67.27,0,0,0,10.56-6.36,64.64,64.64,0,0,0,23.44-33.24,64.91,64.91,0,0,1,62.08-46h23.84a64.91,64.91,0,0,1,62.08,46A64.64,64.64,0,0,0,2090,213.62a67.27,67.27,0,0,0,10.56,6.36,64.68,64.68,0,0,0,28.08,6.4,55,55,0,0,1,54.92,54.92Z" transform="translate(-273.99 -134.38)"/><polygon class="cls-4" points="1940.58 195.32 1940.58 266 1496.58 266 1496.58 195.32 1527.58 195.32 1527.58 242 1909.58 242 1909.58 195.32 1940.58 195.32"/><ellipse class="cls-5" cx="1718.58" cy="56.99" rx="33.88" ry="32.2"/><path class="cls-10" d="M1260.49,636.51c-13.55-2.57-26.22-25.2-30.62-33.88a10.8,10.8,0,0,1-1-6.89l5.39-28.58s12.44,2.11,11.48,18.68a12.08,12.08,0,0,0,.87,5l4.76,12.47,14.08-10.91-7.72-21.8s-10.33,2.84-15.67,1.14c-11-3.5,3.41-12,8-12.95s14.54-4.54,19.08,3.18,7.27,12.26,7.27,12.26,5-17.26,1.59-55.87c-.16-1.74,4.2-1.7,5.42-.46,3.66,3.73,9.48,15.06,9.79,49.52,0,0,.61-40.16,7.5-44.29,5.68-3.41,8.55,16.25,4.55,49.58,0,0,7.41-28.86,12.71-28.91,9-.09.12,77.08-22.38,100.08Z" transform="translate(-273.99 -134.38)"/><path class="cls-10" d="M1303,624.7q-.6,5.76-1.32,11.16v0a324.27,324.27,0,0,1-5.92,34c-.12.48-.2.92-.32,1.36-6.84,28-8.08,41.76-31.44,38.08l-24-27.36-.24-.28-1.76-2,4.88-14.4.64-1.88,3.6-10.48.44-1.36,6.16-18,2.48-7.32Z" transform="translate(-273.99 -134.38)"/><path class="cls-3" d="M856.35,1621l-6.11,19.12c-42,13.79-66.44,29.58-68,48H903.57l9.73-64C888.72,1630.05,869,1625.87,856.35,1621Z" transform="translate(-273.99 -134.38)"/><path class="cls-3" d="M871.57,1573.42,856.35,1621c12.68,4.91,32.37,9.09,56.95,3.09l6.27-41.3Z" transform="translate(-273.99 -134.38)"/><path class="cls-3" d="M1079,1618.84l3.56-48.42-57,3-3.12,44.64C1046.59,1625.75,1066.53,1622.74,1079,1618.84Z" transform="translate(-273.99 -134.38)"/><path class="cls-3" d="M1147.57,1688.08c-1.57-18.42-23-43.66-70-49.66l1.44-19.58c-12.48,3.9-32.42,6.91-56.56-.78l-4.88,70Z" transform="translate(-273.99 -134.38)"/><polygon class="cls-10" points="758.82 514.56 690.06 515.04 690.06 411.04 756.74 411.04 756.78 417.4 757.1 450.36 757.58 503.28 758.82 514.56"/><path class="cls-11" d="M1031.09,589.74c-12.36,13-44.6-1.68-58.2-16l57.88-17Z" transform="translate(-273.99 -134.38)"/><path class="cls-10" d="M1047.05,521.42a148.73,148.73,0,0,1-1.8,23.4c-3.36,21-12.24,39.08-32.72,39.64-48.4,1.4-62.2-26.28-71.32-48.92s5.68-77.2,5.68-77.2l62.64-6.2,34.4,28.2A256.64,256.64,0,0,1,1047.05,521.42Z" transform="translate(-273.99 -134.38)"/><path class="cls-12" d="M943.16,522.57s13.81-.63,16.17-36.28c24.69,8.27,42.73.73,57-15.71,12.2,16.11,46.34,21.16,57.88-11.83,8.33-23.83-14.67-59.33-48.17-37.83-32.83-16.59-82.63-15.45-97,25.24,0,0-49.82,23,2.93,73.54C933.1,520.71,943.16,522.57,943.16,522.57Z" transform="translate(-273.99 -134.38)"/><polygon class="cls-13" points="859.58 888.34 821.58 1463.04 732.25 1463.04 754.58 905.37 768.25 899.04 859.58 888.34"/><polygon class="cls-13" points="626.91 809.71 564.25 1463.04 661.58 1463.04 754.25 920.37 859.58 888.37 864.25 772.37 629.58 767.04 626.91 809.71"/><path class="cls-14" d="M914.87,945.51c53.17,19.09,177.9-2.73,203.8-29.31l-18.4-36.8L895.11,906.66Z" transform="translate(-273.99 -134.38)"/><path class="cls-5" d="M1113.89,907.34c-1.72.72-3.48,1.48-5.28,2.16A361.08,361.08,0,0,1,1042,929.34a305.83,305.83,0,0,1-44.68,5.48,258.17,258.17,0,0,1-70.16-5.68l29.8-277.84,3.64-33.88s39,48,82-5Z" transform="translate(-273.99 -134.38)"/><path class="cls-15" d="M997.29,934.82a258.17,258.17,0,0,1-70.16-5.68l29.8-277.84,10.64-15.38C993.85,699.84,1020.77,841.38,997.29,934.82Z" transform="translate(-273.99 -134.38)"/><path class="cls-6" d="M964.07,606.42c29.63,125.8,41.82,255.25-1.84,399-32.37,12.31-67.61,12.17-105.33,1.33l9.34-261.33-219.67,151-13.33-82.34C717.68,733.34,863.67,611.37,964.07,606.42Z" transform="translate(-273.99 -134.38)"/><path class="cls-15" d="M1108.61,909.5A361.08,361.08,0,0,1,1042,929.34c-13.24-75.92-16.16-200.64-5.4-256.92Z" transform="translate(-273.99 -134.38)"/><path class="cls-16" d="M1295.73,669.94c-.12.48-.2.92-.32,1.36-6.84,28-8.08,41.76-31.44,38.08l-24-27.36-.24-.28,3.12-16.4.64-1.88,3.6-10.48.44-1.36Z" transform="translate(-273.99 -134.38)"/><path class="cls-6" d="M1291.57,695.42s-59,125-94,128c-33.93,2.91-50-30-50-30l24,182.68c-28.2,13.2-59,19.64-94.68,13.32-31.72-103-43.71-236.18-46.07-384.5,25.68,1.6,76.54,3.79,94.75,15.5,32.67,21,73,96,73,96l47-64Z" transform="translate(-273.99 -134.38)"/><path class="cls-17" d="M572.31,519.29s3.57-59.8,9.66-57,18.29,54.81,18.29,54.81l-13,21.06Z" transform="translate(-273.99 -134.38)"/><path class="cls-18" d="M751.87,1599.09l1.76,19.68a63.14,63.14,0,0,1-57.25,68.55l-5.06.46a63.17,63.17,0,0,1-68.56-57.26L621,1610.84Z" transform="translate(-273.99 -134.38)"/><rect class="cls-19" x="577.92" y="650.08" width="131.4" height="956.8" transform="translate(-372.39 -72.26) rotate(-5.13)"/><rect class="cls-20" x="613.27" y="631.21" width="46.67" height="838.67" transform="translate(-365.44 -73.2) rotate(-5.13)"/><polygon class="cls-12" points="477.86 1464.72 347.02 1476.48 343.58 1438.08 341.18 1411.4 333.78 1329.4 464.66 1317.64 472.02 1399.64 474.42 1426.32 477.86 1464.72"/><rect class="cls-19" x="616.1" y="1539.84" width="131.37" height="26.79" transform="translate(-410.3 -67.11) rotate(-5.14)"/><path class="cls-18" d="M535.36,657.88l36.35-145.69s12.55,5.57,27.77-3.83l66.76,137.77Z" transform="translate(-273.99 -134.38)"/><path class="cls-10" d="M950.4,516.54c-.59-2.15-10.35-5.1-12.5-5.7-3.33-.92-7-1.37-10.2.1-11.82,5.33-10.24,22.25-4.12,31.14A26.66,26.66,0,0,0,938,552.68c2.14.61,22.46.85,21.57-2.41C959.59,550.25,950.42,516.61,950.4,516.54Z" transform="translate(-273.99 -134.38)"/><path class="cls-10" d="M578.57,856.42a17.79,17.79,0,0,0-22.73-11.74C541,849.82,528,858.54,526,873.37c-1.83,13.51,4.92,56.67,35.11,62.22l-2.47-22.18s18.48-4.31,22.18-12.32C583.38,895.49,583.56,872.07,578.57,856.42Z" transform="translate(-273.99 -134.38)"/><path class="cls-21" d="M1138.34,708c1.59,9.45,2.94,18.92,4.24,28.4s2.41,19,3.62,28.46l3.1,28.53c.91,9.53,1.79,19,2.38,28.61l-1.55.19c-1.64-9.44-3-18.92-4.3-28.39l-3.56-28.48c-1-9.51-2.17-19-3-28.53s-1.79-19-2.43-28.6Z" transform="translate(-273.99 -134.38)"/><path class="cls-21" d="M869.35,706.45c0,10.61-.28,21.21-.59,31.8s-.82,21.17-1.21,31.76l-1.74,31.74c-.7,10.57-1.43,21.15-2.46,31.7l-1.56-.07c0-10.61.24-21.2.53-31.79l1.27-31.77c.61-10.57,1.06-21.16,1.79-31.73s1.43-21.15,2.41-31.71Z" transform="translate(-273.99 -134.38)"/><path class="cls-12" d="M998.94,515.55c.85,3.77-.7,7.33-3.47,8s-5.68-1.94-6.53-5.71.71-7.33,3.47-7.95S998.1,511.77,998.94,515.55Z" transform="translate(-273.99 -134.38)"/><path class="cls-12" d="M1038.81,510.88c-.16,3.87-2.58,6.9-5.41,6.78s-5-3.35-4.83-7.21,2.59-6.9,5.42-6.78S1039,507,1038.81,510.88Z" transform="translate(-273.99 -134.38)"/><path class="cls-11" d="M1016.58,514.05c1.37,3.31,1.16,6.87,2,9.58a7.53,7.53,0,0,0,1.94,3.33,12.65,12.65,0,0,0,3.75,1.84,10.45,10.45,0,0,1,4.74,3.57,6.22,6.22,0,0,1,.49,6.55,12.48,12.48,0,0,1-3.91,4c-1.37.93-2.69,1.91-4.12,2.78l-1-1.18c1-1.3,2.21-2.47,3.31-3.71a11.63,11.63,0,0,0,2.58-3.36c.85-1.85-1-3.88-3.59-4.92-1.35-.62-3.3-1.16-4.88-2.77a9.79,9.79,0,0,1-2.56-5.29c-.66-3.71.09-6.88-.27-10Z" transform="translate(-273.99 -134.38)"/><path class="cls-12" d="M979.86,505.42a11.71,11.71,0,0,1,4.08-6.24,12.51,12.51,0,0,1,7.25-2.71,13.42,13.42,0,0,1,12.62,7.09l-1.23,1a17.16,17.16,0,0,0-11.19-4.08,13.06,13.06,0,0,0-10.11,5.63Z" transform="translate(-273.99 -134.38)"/><path class="cls-12" d="M1021.14,500.52a12.2,12.2,0,0,1,3.14-5,10.43,10.43,0,0,1,5.68-2.81c4.3-.71,8.92,1.47,10.61,5.29l-1.25.94a12.72,12.72,0,0,0-8.77-2.3,11.4,11.4,0,0,0-4.18,1.53,27.34,27.34,0,0,0-3.88,3.2Z" transform="translate(-273.99 -134.38)"/><path class="cls-5" d="M999,552.79c7,10.93,16.29,12.12,23.47.62Z" transform="translate(-273.99 -134.38)"/><path class="cls-22" d="M1047.24,518.75a186,186,0,0,1-2,26.07,12,12,0,0,1-8.36-11.48C1036.89,527.3,1041.52,519.67,1047.24,518.75Z" transform="translate(-273.99 -134.38)"/><circle class="cls-22" cx="707.98" cy="406.11" r="12.9"/><path class="cls-11" d="M942,529.39a65.4,65.4,0,0,0-7.22-4.75,6.25,6.25,0,0,0-3.18-.82,7.15,7.15,0,0,0-3.33,1.52l-1.31-.85a6.22,6.22,0,0,1,3.8-4.08,7.4,7.4,0,0,1,5.79.66,15,15,0,0,1,6.69,7.37Z" transform="translate(-273.99 -134.38)"/><path class="cls-23" d="M580.8,901.09,562.23,957.5l-3.83-44.08C569.94,910.91,576.24,906.29,580.8,901.09Z" transform="translate(-273.99 -134.38)"/><line class="cls-24" y1="1554.07" x2="2585.87" y2="1554.07"/></svg>