<?xml version="1.0" standalone="no"?>
<!DOCTYPE svg PUBLIC "-//W3C//DTD SVG 20010904//EN"
 "http://www.w3.org/TR/2001/REC-SVG-20010904/DTD/svg10.dtd">
<svg version="1.0" xmlns="http://www.w3.org/2000/svg"
 width="2048.000000pt" height="2048.000000pt" viewBox="0 0 2048.000000 2048.000000"
 preserveAspectRatio="xMidYMid meet">

<g transform="translate(0.000000,2048.000000) scale(0.100000,-0.100000)"
fill="#000000" stroke="none">
<path d="M520 16565 c0 -27 1309 -11824 1316 -11852 l4 -23 8400 0 8400 0 4
23 c10 43 1317 11840 1314 11854 -2 8 -1141 -1409 -2533 -3148 -1391 -1740
-2537 -3172 -2546 -3182 -14 -18 -140 136 -2324 2867 -1270 1587 -2312 2886
-2315 2886 -3 0 -1045 -1299 -2315 -2886 -1859 -2325 -2310 -2883 -2320 -2872
-7 7 -1148 1433 -2535 3168 -1387 1735 -2529 3162 -2536 3170 -12 12 -14 12
-14 -5z m12034 -4572 c1268 -1586 2308 -2883 2310 -2883 2 0 935 1163 2072
2585 1137 1421 2069 2583 2070 2582 3 -3 -972 -8801 -981 -8854 l-6 -33 -7779
0 -7779 0 -6 33 c-9 53 -984 8851 -981 8854 1 1 933 -1161 2070 -2582 1444
-1805 2072 -2583 2080 -2576 6 5 1046 1303 2311 2885 1265 1582 2303 2875
2307 2873 3 -1 1044 -1299 2312 -2884z"/>
</g>
</svg>
