<?xml version="1.0" standalone="no"?>
<!DOCTYPE svg PUBLIC "-//W3C//DTD SVG 20010904//EN"
 "http://www.w3.org/TR/2001/REC-SVG-20010904/DTD/svg10.dtd">
<svg version="1.0" xmlns="http://www.w3.org/2000/svg"
 width="884.000000pt" height="388.000000pt" viewBox="0 0 884.000000 388.000000"
 preserveAspectRatio="xMidYMid meet">
<metadata>
Created by potrace 1.16, written by Peter Selinger 2001-2019
</metadata>
<g transform="translate(0.000000,388.000000) scale(0.100000,-0.100000)"
fill="#000000" stroke="none">
<path d="M4680 3661 c-103 -4 -163 -11 -180 -20 -13 -8 -101 -35 -195 -61
-205 -57 -308 -93 -355 -124 -19 -13 -73 -44 -120 -69 -88 -47 -97 -53 -265
-184 -118 -93 -154 -144 -162 -230 -3 -32 0 -76 6 -99 11 -43 666 -1021 724
-1082 54 -57 102 -77 187 -77 88 0 100 6 241 110 78 57 112 76 152 84 247 48
234 47 415 37 221 -11 264 -3 335 62 88 83 92 96 95 332 1 113 -1 412 -6 665
-9 512 -8 504 -80 578 -77 80 -84 82 -377 83 -143 1 -330 -2 -415 -5z m694
-134 c56 -37 56 -34 66 -705 9 -608 9 -618 -11 -659 -15 -30 -32 -47 -62 -61
-38 -18 -73 -20 -412 -26 l-370 -6 -39 23 c-80 45 -76 10 -86 704 l-9 618 22
44 c43 88 29 85 445 91 376 5 415 3 456 -23z m-1032 -164 c-2 -54 1 -296 6
-538 6 -242 9 -441 8 -442 -3 -3 -156 913 -156 936 0 58 48 108 130 135 8 2
15 5 15 5 0 1 -1 -43 -3 -96z m-249 -30 c-4 -56 13 -167 91 -602 53 -294 95
-538 93 -544 -1 -5 -74 225 -161 512 -170 557 -175 582 -130 632 14 16 80 56
110 69 1 0 -1 -30 -3 -67z m-74 -703 c88 -283 159 -516 157 -517 -4 -5 -454
940 -461 969 -12 47 13 96 68 140 l52 40 12 -58 c7 -33 84 -291 172 -574z
m-214 -5 c200 -406 271 -555 257 -540 -5 6 -129 188 -275 407 -165 246 -268
409 -272 430 -8 44 16 105 53 135 l27 23 16 -48 c9 -26 96 -209 194 -407z"/>
<path d="M5870 1730 l0 -100 1430 0 1430 0 0 100 0 100 -1430 0 -1430 0 0
-100z"/>
<path d="M230 1710 l0 -100 1430 0 1430 0 0 100 0 100 -1430 0 -1430 0 0 -100z"/>
<path d="M1488 1150 c-119 -20 -237 -83 -296 -158 -131 -165 -132 -448 -2
-612 42 -54 139 -116 219 -141 79 -25 261 -36 341 -21 l55 10 42 -47 c59 -68
124 -89 212 -70 90 19 138 97 148 242 l6 77 -35 0 c-34 0 -36 -2 -42 -42 -10
-63 -30 -88 -69 -88 -61 0 -65 14 -20 63 78 84 113 186 113 327 0 141 -35 234
-121 326 -60 63 -146 107 -251 128 -81 17 -220 19 -300 6z m186 -221 c45 -21
60 -70 64 -218 4 -128 4 -134 -14 -126 -39 16 -129 17 -167 2 l-37 -16 0 122
c0 67 5 139 11 161 21 74 78 104 143 75z"/>
<path d="M5150 1102 c0 -51 -46 -139 -91 -175 -21 -16 -54 -31 -78 -34 l-41
-6 0 -103 0 -104 49 0 49 0 4 -162 c3 -152 5 -166 28 -208 38 -68 92 -93 208
-98 112 -5 167 8 220 54 55 47 74 99 80 222 l5 102 -47 0 -46 0 0 -73 c0 -79
-18 -113 -57 -105 -31 6 -43 47 -43 161 l0 107 90 0 90 0 0 115 0 115 -90 0
-90 0 0 115 0 115 -120 0 -120 0 0 -38z"/>
<path d="M6670 1102 c0 -51 -46 -139 -91 -175 -21 -16 -54 -31 -78 -34 l-41
-6 0 -103 0 -104 49 0 49 0 4 -162 c3 -152 5 -166 28 -208 38 -68 92 -93 208
-98 112 -5 167 8 220 54 55 47 74 99 80 222 l5 102 -47 0 -46 0 0 -73 c0 -79
-18 -113 -57 -105 -31 6 -43 47 -43 161 l0 107 90 0 90 0 0 115 0 115 -90 0
-90 0 0 115 0 115 -120 0 -120 0 0 -38z"/>
<path d="M3513 926 c-131 -30 -211 -98 -220 -188 -5 -51 18 -101 60 -132 22
-17 43 -21 94 -20 l66 0 -79 -21 c-90 -24 -129 -43 -162 -77 -68 -74 -41 -203
53 -252 33 -18 58 -21 150 -21 96 0 116 3 158 24 28 13 57 37 68 55 11 17 19
24 19 15 0 -48 108 -99 210 -99 165 0 230 66 230 235 l0 85 -40 0 -40 0 0 -54
c0 -63 -15 -109 -33 -104 -9 4 -13 57 -17 199 -4 163 -8 200 -24 232 -42 85
-143 127 -316 133 -77 3 -136 -1 -177 -10z m112 -120 c69 -29 75 -114 11 -168
-23 -19 -107 -51 -114 -43 -3 3 0 5 7 5 6 0 23 12 36 26 19 21 25 38 25 74 0
55 -22 85 -72 96 -29 6 -30 8 -13 15 32 12 83 10 120 -5z"/>
<path d="M4670 925 c-50 -23 -70 -44 -96 -100 l-24 -50 7 68 6 67 -187 0 -186
0 0 -115 c0 -110 1 -115 21 -115 50 0 59 -15 59 -103 0 -91 -8 -107 -52 -107
l-28 0 0 -115 0 -115 260 0 260 0 0 115 0 115 -33 0 c-52 0 -57 12 -56 139 1
84 3 106 9 81 5 -19 22 -47 39 -62 28 -25 39 -28 97 -28 118 0 170 56 162 176
-4 67 -21 101 -70 137 -35 26 -141 33 -188 12z"/>
<path d="M5890 926 c-128 -29 -203 -83 -252 -184 -31 -62 -33 -74 -33 -167 0
-93 2 -105 33 -167 70 -143 214 -208 430 -195 203 12 303 77 346 225 l15 52
-118 0 -117 0 -18 -41 c-44 -99 -176 -85 -206 22 -18 62 -31 59 231 59 l242 0
-6 68 c-11 134 -75 240 -177 292 -90 46 -254 62 -370 36z"/>
<path d="M7332 926 c-73 -18 -142 -64 -170 -111 -19 -34 -22 -52 -20 -112 3
-63 7 -76 34 -110 42 -51 90 -77 205 -108 98 -27 136 -51 126 -79 -9 -22 -53
-30 -87 -16 -16 7 -46 30 -65 51 l-35 39 -90 0 -90 0 0 -125 0 -125 90 0 c84
0 90 1 90 20 0 19 2 20 28 6 110 -56 340 -45 437 22 60 41 88 102 82 180 -9
118 -68 172 -242 218 -99 26 -135 45 -135 71 0 7 11 18 24 23 39 15 92 -6 128
-50 l31 -40 89 0 88 0 0 125 0 125 -90 0 c-82 0 -90 -2 -90 -19 0 -19 -1 -19
-52 1 -68 25 -213 33 -286 14z"/>
<path d="M2210 795 l0 -115 28 0 c54 0 57 -8 62 -162 5 -121 9 -149 28 -185
43 -82 119 -117 254 -117 76 0 93 3 144 29 45 23 63 40 81 74 l23 44 0 -61 0
-62 190 0 190 0 0 115 0 115 -33 0 c-18 0 -38 5 -45 12 -9 9 -12 72 -12 220
l0 208 -220 0 -220 0 0 -115 0 -115 26 0 c55 0 64 -14 64 -100 0 -67 -3 -83
-20 -100 -26 -26 -76 -26 -90 -1 -6 12 -10 103 -10 225 l0 206 -220 0 -220 0
0 -115z"/>
</g>
</svg>
