<svg id="svg2" xmlns="http://www.w3.org/2000/svg" xmlns:xlink="http://www.w3.org/1999/xlink" viewBox="0 0 83.87 113.13"><defs><style>.cls-1,.cls-2{fill:#302c2c;}.cls-1{fill-opacity:0.5;}.cls-3{fill:url(#linear-gradient);}.cls-4{fill:url(#linear-gradient-2);}.cls-5{fill:url(#linear-gradient-3);}.cls-6{fill:url(#linear-gradient-4);}.cls-7{fill-opacity:0.3;}</style><linearGradient id="linear-gradient" x1="165.5" y1="123.18" x2="102.63" y2="202.22" gradientTransform="matrix(0.85, 0, 0, -1.17, -68.36, 300.5)" gradientUnits="userSpaceOnUse"><stop offset="0" stop-color="#000086"/><stop offset="0.12" stop-color="#00038a"/><stop offset="0.24" stop-color="#000d97"/><stop offset="0.37" stop-color="#001dac"/><stop offset="0.5" stop-color="#0033ca"/><stop offset="0.63" stop-color="#004ff0"/><stop offset="0.66" stop-color="#0057fb"/><stop offset="0.95" stop-color="#0058fd"/><stop offset="1" stop-color="#005aff"/></linearGradient><linearGradient id="linear-gradient-2" x1="93.12" y1="202.44" x2="169.99" y2="126.23" gradientTransform="matrix(0.86, 0, 0, -1.17, -67.83, 299.55)" gradientUnits="userSpaceOnUse"><stop offset="0" stop-color="#000086"/><stop offset="1" stop-color="#005aff"/></linearGradient><linearGradient id="linear-gradient-3" x1="-34.5" y1="34.52" x2="5.57" y2="-10.84" gradientTransform="matrix(1.13, 0, 0, -0.88, 61.81, 117.92)" xlink:href="#linear-gradient-2"/><linearGradient id="linear-gradient-4" x1="7.14" y1="-10.28" x2="-39.32" y2="40.66" gradientTransform="matrix(1.13, 0, 0, -0.88, 61.02, 118.76)" xlink:href="#linear-gradient-2"/></defs><title>MidDeck</title><g id="g5630"><path id="rect2070" class="cls-1" d="M15.48,54H77.63a9.59,9.59,0,0,1,9.65,9.58v91.58a9.59,9.59,0,0,1-9.65,9.58H15.48a9.59,9.59,0,0,1-9.65-9.58V63.57A9.59,9.59,0,0,1,15.48,54Z" transform="translate(-3.42 -51.6)"/><path id="rect1300" class="cls-2" d="M13.07,51.6H75.22a9.6,9.6,0,0,1,9.65,9.58v91.58a9.6,9.6,0,0,1-9.65,9.58H13.07a9.6,9.6,0,0,1-9.65-9.58V61.18A9.59,9.59,0,0,1,13.07,51.6Z" transform="translate(-3.42 -51.6)"/><path id="path5624" class="cls-2" d="M14.28,52.8H76.42a9.6,9.6,0,0,1,9.66,9.57V154a9.6,9.6,0,0,1-9.66,9.57H14.28A9.6,9.6,0,0,1,4.62,154V62.37A9.6,9.6,0,0,1,14.28,52.8Z" transform="translate(-3.42 -51.6)"/><path id="rect1306" class="cls-2" d="M13.67,52.2H75.82a9.59,9.59,0,0,1,9.65,9.57v91.59a9.59,9.59,0,0,1-9.65,9.57H13.67A9.59,9.59,0,0,1,4,153.36V61.77A9.59,9.59,0,0,1,13.67,52.2Z" transform="translate(-3.42 -51.6)"/></g><path id="path1385" class="cls-3" d="M15.29,54.72H73.64a9,9,0,0,1,9.07,9.06v86.68a9,9,0,0,1-9.07,9.06H15.29a9,9,0,0,1-9.07-9.06V63.78a9.06,9.06,0,0,1,9.07-9.07Z" transform="translate(-3.42 -51.6)"/><path id="path2154" class="cls-4" d="M15.28,54.33a9.42,9.42,0,0,0-9.44,9.44v86.69a9.44,9.44,0,0,0,9.44,9.46H73.65a9.44,9.44,0,0,0,9.45-9.46V63.77a9.43,9.43,0,0,0-9.45-9.44Zm0,.77H73.65a8.64,8.64,0,0,1,8.67,8.67v86.69a8.66,8.66,0,0,1-8.67,8.69H15.28a8.66,8.66,0,0,1-8.67-8.69V63.77a8.64,8.64,0,0,1,8.67-8.67Z" transform="translate(-3.42 -51.6)"/><path id="path6344" class="cls-5" d="M50.3,78.79l-7.9.91-4.52-.52a4,4,0,0,0-3.42,1.29l-.83.25L24,81.84a4.11,4.11,0,0,0-3.38,2.74l-9.27,2.77a4.1,4.1,0,0,0-2.76,5.11l11.2,37.73a4,4,0,0,0,2.15,2.49c.11.07.23.11.34.17s.32.16.49.24a4.06,4.06,0,0,0,3.42.55l16.63-4.94,3.24.39,12.77,5.69a4.1,4.1,0,0,0,5.43-2.08l16-35.95a4,4,0,0,0-.11-3.47c0-.16-.07-.32-.13-.47s-.1-.27-.16-.4A4.09,4.09,0,0,0,77.67,90l-9.41-4.21a4,4,0,0,0-.69-1,3.83,3.83,0,0,0-.33-.46L67,84a4.07,4.07,0,0,0-2.83-1.72L59,81.65l-5.54-2.47a4,4,0,0,0-2-.29,3.75,3.75,0,0,0-1.16-.1Z" transform="translate(-3.42 -51.6)"/><path id="path5594" class="cls-6" d="M50.26,78.41l-7.82.91h-.08l-4.44-.52a4.36,4.36,0,0,0-3.58,1.29l-.83.26L24,81.47a4.47,4.47,0,0,0-3.61,2.78L11.23,87a4.49,4.49,0,0,0-3,5.6l11.21,37.72A4.41,4.41,0,0,0,21.73,133v0s0,0,0,0l.33.17h0a4.29,4.29,0,0,0,.44.21l.06,0v0a4.45,4.45,0,0,0,3.69.6l16.59-4.93,3,.35h0l12.75,5.7a4.49,4.49,0,0,0,5.93-2.28l16-35.94a4.46,4.46,0,0,0-.1-3.75.14.14,0,0,1,0-.06,2.93,2.93,0,0,0-.14-.42v0c0-.13-.08-.26-.13-.39l0,0a4.47,4.47,0,0,0-2.4-2.62l-9.31-4.18a4,4,0,0,0-.62-.92l0-.06c-.09-.13-.19-.28-.31-.43s0,0,0,0-.16-.17-.22-.24,0,0,0,0h0a4.44,4.44,0,0,0-3.06-1.84l-5-.6h0l-5.52-2.47a4.29,4.29,0,0,0-2.12-.31h-.1a3.86,3.86,0,0,0-1.16-.1Zm.08.76a4,4,0,0,1,1.06.09l0,0,.06,0a3.71,3.71,0,0,1,1.83.27L58.87,82l.06,0H59l5.16.61a3.64,3.64,0,0,1,2.54,1.57v0l0,0c.09.1.16.16.21.23v0l0,0a3.81,3.81,0,0,1,.29.4l0,0,0,0a3.74,3.74,0,0,1,.63,1l.06.13.13.06,9.41,4.21a3.62,3.62,0,0,1,2,2.2v0l0,0a2.32,2.32,0,0,1,.13.37l0,0a2.85,2.85,0,0,1,.12.42v0l0,0a3.65,3.65,0,0,1,.12,3.15l-16,35.95A3.71,3.71,0,0,1,59,134.43l-12.77-5.7-.05,0h-.06l-3.25-.39-.07,0-.08,0-16.63,4.94a3.62,3.62,0,0,1-3.09-.5h0l0,0c-.17-.08-.32-.14-.44-.21l0,0c-.13-.06-.25-.1-.33-.15h0a3.69,3.69,0,0,1-2-2.26L9,92.36a3.71,3.71,0,0,1,2.51-4.64L20.73,85l.19-.06.06-.19A3.68,3.68,0,0,1,24,82.22l9.64-1.12h.08l.83-.25.09,0,.08-.08a3.65,3.65,0,0,1,3.09-1.18l4.52.52,0,0,0,0Z" transform="translate(-3.42 -51.6)"/><path class="cls-7" d="M45.26,98.32a3.68,3.68,0,0,0-1,.11,10.76,10.76,0,0,1-1.08.33,8.83,8.83,0,0,0-2,.69l-.67.38a8.26,8.26,0,0,0-1.46,1c-.66.52-.85.8-.9,1.27a1.92,1.92,0,0,0,0,.55c.06.24,3.69,5.65,4,6a1.24,1.24,0,0,0,1,.43c.48,0,.55,0,1.33-.61a2.21,2.21,0,0,1,.84-.47,6.15,6.15,0,0,1,2.3-.2c1.22.06,1.46,0,1.85-.35s.51-.53.53-1.83c0-.63,0-2.28,0-3.68,0-2.84,0-2.79-.44-3.2s-.46-.46-2.09-.46C46.76,98.28,45.73,98.3,45.26,98.32Zm3.84.74c.31.2.31.19.36,3.9,0,3.36,0,3.42-.06,3.65a.61.61,0,0,1-.34.33c-.21.1-.4.12-2.28.15l-2.05,0-.21-.13c-.45-.24-.42,0-.48-3.89l0-3.42.12-.25c.24-.48.16-.47,2.47-.5C48.66,98.9,48.87,98.91,49.1,99.06Zm-5.71.91c0,.29,0,1.63,0,3s0,2.44,0,2.45-.86-5-.86-5.18c0-.32.27-.6.72-.75l.08,0S43.4,99.67,43.39,100Zm-1.38.16a21.77,21.77,0,0,0,.5,3.33c.3,1.63.53,3,.52,3s-.41-1.24-.89-2.83c-.94-3.08-1-3.22-.72-3.5a2.46,2.46,0,0,1,.61-.38S42,99.93,42,100.13ZM41.6,104c.49,1.57.88,2.86.87,2.86s-2.51-5.2-2.55-5.36a.77.77,0,0,1,.37-.77l.29-.23.07.33C40.69,101,41.11,102.46,41.6,104Zm-1.18,0c1.1,2.25,1.5,3.07,1.42,3s-.72-1-1.52-2.25a25.92,25.92,0,0,1-1.51-2.38.9.9,0,0,1,.29-.75l.15-.13.09.27C39.39,101.94,39.87,103,40.42,104.05Z" transform="translate(-3.42 -51.6)"/><path class="cls-7" d="M51.84,109v.56H67.67v-1.11H51.84Z" transform="translate(-3.42 -51.6)"/><path class="cls-7" d="M20.63,109.11v.56H36.46v-1.11H20.63Z" transform="translate(-3.42 -51.6)"/><path class="cls-7" d="M27.59,112.21a2.76,2.76,0,0,0-1.64.88,2.91,2.91,0,0,0,0,3.38,2.77,2.77,0,0,0,1.22.78,5.41,5.41,0,0,0,1.88.12l.31-.05.23.26a1.1,1.1,0,0,0,1.17.38c.5-.1.77-.53.82-1.34l0-.42h-.19c-.19,0-.2,0-.23.23s-.17.49-.38.49-.36-.08-.11-.35a2.49,2.49,0,0,0,.62-1.81,2.38,2.38,0,0,0-.67-1.81,2.59,2.59,0,0,0-1.39-.7A5.44,5.44,0,0,0,27.59,112.21Zm1,1.23c.25.11.33.38.36,1.2s0,.74-.08.7a1.73,1.73,0,0,0-.93,0l-.2.09v-.68a5.44,5.44,0,0,1,.06-.89A.54.54,0,0,1,28.62,113.44Z" transform="translate(-3.42 -51.6)"/><path class="cls-7" d="M47.86,112.48a1.63,1.63,0,0,1-.5,1,1.07,1.07,0,0,1-.44.19l-.22,0v1.14h.54l0,.9c0,.84,0,.92.16,1.15s.51.52,1.15.54a1.55,1.55,0,0,0,1.22-.29c.3-.26.4-.55.44-1.23l0-.57h-.52v.41c0,.43-.1.62-.31.58s-.24-.26-.24-.89v-.6h1v-1.27h-1v-1.27H47.86Z" transform="translate(-3.42 -51.6)"/><path class="cls-7" d="M56.27,112.48a1.58,1.58,0,0,1-.5,1,1.09,1.09,0,0,1-.43.19l-.23,0v1.14h.54l0,.9c0,.84,0,.92.16,1.15s.51.52,1.15.54a1.55,1.55,0,0,0,1.22-.29c.3-.26.41-.55.44-1.23l0-.57h-.52v.41c0,.43-.1.62-.31.58s-.24-.26-.24-.89v-.6h1v-1.27h-1v-1.27H56.27Z" transform="translate(-3.42 -51.6)"/><path class="cls-7" d="M38.8,113.45c-.73.17-1.17.55-1.22,1a.8.8,0,0,0,.33.73.69.69,0,0,0,.52.11h.37l-.44.12a1.66,1.66,0,0,0-.89.43.91.91,0,0,0,.29,1.39,1.51,1.51,0,0,0,.83.12,1.51,1.51,0,0,0,.87-.14.92.92,0,0,0,.38-.3c.06-.09.11-.13.11-.08,0,.26.59.55,1.16.55.91,0,1.27-.37,1.27-1.31v-.47h-.44v.3c0,.35-.09.61-.19.58a3.68,3.68,0,0,1-.09-1.1,3.32,3.32,0,0,0-.13-1.29c-.23-.47-.79-.7-1.75-.73A3.93,3.93,0,0,0,38.8,113.45Zm.62.67a.53.53,0,0,1,.06.93c-.13.1-.59.28-.63.23s0,0,0,0a.5.5,0,0,0,.2-.15.53.53,0,0,0,.14-.41.48.48,0,0,0-.4-.53c-.16,0-.17,0-.07-.08A1,1,0,0,1,39.42,114.12Z" transform="translate(-3.42 -51.6)"/><path class="cls-7" d="M45.2,113.46a1,1,0,0,0-.53.55l-.13.28,0-.38,0-.37H42.55v.64c0,.61,0,.63.11.63.28,0,.33.09.33.57s-.05.6-.29.6h-.15v1.27h2.87V116h-.18c-.29,0-.31-.07-.31-.77,0-.47,0-.59,0-.45a.8.8,0,0,0,.22.34c.15.14.21.16.53.16.66,0,.94-.31.9-1a.87.87,0,0,0-.39-.76A1.42,1.42,0,0,0,45.2,113.46Z" transform="translate(-3.42 -51.6)"/><path class="cls-7" d="M52,113.45a1.82,1.82,0,0,0-1.39,1,1.51,1.51,0,0,0-.18.93,1.49,1.49,0,0,0,.18.92,2.23,2.23,0,0,0,2.38,1.08c1.12-.07,1.68-.43,1.91-1.25l.09-.28h-1.3l-.1.22A.6.6,0,0,1,52.4,116c-.1-.34-.17-.33,1.28-.33H55l0-.37a1.91,1.91,0,0,0-1-1.62A3.58,3.58,0,0,0,52,113.45Z" transform="translate(-3.42 -51.6)"/><path class="cls-7" d="M59.94,113.45a1.63,1.63,0,0,0-.95.62,1,1,0,0,0-.11.62.81.81,0,0,0,.19.61,1.91,1.91,0,0,0,1.14.59c.54.15.75.29.69.44s-.29.17-.48.09a1.61,1.61,0,0,1-.36-.28l-.19-.22h-1v1.38h.5c.47,0,.5,0,.5-.11s0-.11.15,0a3,3,0,0,0,2.42-.12,1.06,1.06,0,0,0,.46-1c0-.65-.38-1-1.34-1.2-.55-.15-.75-.25-.75-.4s.06-.1.13-.12a.66.66,0,0,1,.71.27l.17.22h1v-1.38h-.5c-.45,0-.49,0-.49.11s0,.1-.29,0A3.51,3.51,0,0,0,59.94,113.45Z" transform="translate(-3.42 -51.6)"/><path class="cls-7" d="M31.59,114.18v.63h.15c.3,0,.32,0,.35.9a2.14,2.14,0,0,0,.15,1c.24.46.66.65,1.41.65a1.26,1.26,0,0,0,.79-.16.87.87,0,0,0,.45-.41l.13-.24v.68h2.1V116h-.18a.41.41,0,0,1-.25-.07,4.15,4.15,0,0,1-.07-1.22v-1.15H34.19v1.27h.14c.31,0,.36.08.36.56s0,.46-.11.55-.42.14-.5,0a7.66,7.66,0,0,1-.06-1.25v-1.14H31.59Z" transform="translate(-3.42 -51.6)"/></svg>