<?xml version="1.0" encoding="UTF-8"?>
<!DOCTYPE svg  PUBLIC '-//W3C//DTD SVG 1.1//EN'  'http://www.w3.org/Graphics/SVG/1.1/DTD/svg11.dtd'>
<svg clip-rule="evenodd" fill-rule="evenodd" stroke-linecap="round" stroke-linejoin="round" stroke-miterlimit="1.5" version="1.1" viewBox="0 0 2048 2048" xml:space="preserve" xmlns="http://www.w3.org/2000/svg">
    <path d="m1032.3 185.73c308.21 27.474 454.49 435.54 274.94 675.82 141.7 197.83 181.36 479.3 50.19 577.09 10.21 112.04 15.62 206.02-23.67 295.89-86.81 110.52-194.34 92.01-250.94 22.26-16.53-13.58-24.32-80.35-27.67-174.11-21.22-102.44-152.89-76.59-121.92 5.33 6.632 78.02 5.922 119.06 3.924 153.61-30.56 114.34-120.87 123.21-200.83 42.25-51.644-65.23-65.649-211.24-64.771-389.18-180.52-153.21-65.728-383.02 105.49-578.05-193.78-327.24-34.018-645.63 255.26-630.9z" fill="#ff0018" stroke="#060606" stroke-width="8.33px"/>
    <path d="m1245.7 1003.4c39.12 90.62 60.6 173.73 73.73 244.87" fill="none" stroke="#060606" stroke-width="8.33px"/>
    <path d="m1102.6 851.03c110.53-7.724 194.08-189.3 186.1-314.92" fill="none" stroke="#060606" stroke-width="8.33px"/>
    <path d="m1308.8 859.2c-15.41 26.364-35.49 45.682-55.66 62.936" fill="none" stroke="#060606" stroke-width="8.33px"/>
    <path d="m777.95 817.72c30.343 37.857 60.616 69.871 89.837 90.614" fill="none" stroke="#060606" stroke-width="8.33px"/>
    <path d="m918.33 900.26c70.108 24.355 144.65 25.038 226.84-14.286" fill="none" stroke="#060606" stroke-width="8.33px"/>
    <path d="m580.24 1217.4c31.139 24.78 65.452 39.27 104.61 38.05l-12.635 134.96c-59.13-42.2-87.285-101.23-91.977-173.01z" stroke="#060606" stroke-width="8.33px"/>
    <path d="m1008.8 829.89c-35.413 275.61-32.779 501.47 6.89 651.03" fill="none" stroke="#060606" stroke-width="8.33px"/>
    <path d="m936.93 859.2c-119.52-36.723-203.36-145.25-180.1-346.54" fill="none" stroke="#060606" stroke-width="8.33px"/>
    <path d="m687.98 1262.9-6.992 68.52c116.11 104.81 450.1 101.64 652.4-4.45l-11.06-78.67c-217.61 99.44-433.75 103.3-634.35 14.6z" fill="#393939" stroke="#060606" stroke-width="8.33px"/>
    <path d="m1124.6 1312.4 29.64-5.76c5.52 16.31 15.12 42.97 16.54 77.84l-29.55 5.95c-3.57-34.22-3.23-67.05-16.63-78.03z" fill="#ff0018" stroke="#060606" stroke-width="8.33px"/>
    <path d="m852.35 1316.6 27.536 2.59c-14.377 43.1-14.911 72.09-9.287 82.69l-27.227-3.56c-4.737-25.35-0.472-55.29 8.978-81.72z" fill="#ff0018" stroke="#060606" stroke-width="8.33px"/>
    <path d="m1088.6 1049.2c35 2.34 70.38 1.22 106.48-6.2 9.16 16.43 9.4 33.49 3.4 51.01-40.63 19.73-74.89 21.73-103.86 9.03-7.2-6.36-7.58-27.95-6.02-53.84z" fill="none" stroke="#060606" stroke-width="8.33px"/>
    <path d="m1094.6 1103c-2.4 23.65-1.44 46.94 4.9 65.17 29.63 21.48 60.4 21.88 94.74-10.62 10.29-28.93 7.76-38.68-2.06-60.62" fill="none" stroke="#060606" stroke-width="8.33px"/>
    <path d="m756.83 1003.3c-40.683 115.1-60.958 136.91-66.622 257.48" fill="none" stroke="#060606" stroke-width="8.33px"/>
    <g transform="matrix(1.1329 0 0 1.551 -171.31 -290.25)">
        <ellipse cx="1054" cy="528.61" rx="234.72" ry="193.58" stroke="#060606" stroke-width="6.14px"/>
    </g>
    <path d="m1433.1 1259.5c-33.51 17.67-63.93 22.62-99.75 18.36 8.78 54.69 16.48 108.73 23.48 162.34 48.95-39.6 73.01-97.22 76.27-180.7z" stroke="#060606" stroke-width="8.33px"/>
    <g transform="matrix(.90671 0 0 1.1712 185.53 -388.62)">
        <ellipse cx="924.74" cy="687.41" rx="99.26" ry="76.844" fill="none" stroke="#fff" stroke-width="19.89px"/>
    </g>
</svg>
